<svg width="134" height="119" viewBox="0 0 134 119" fill="none" xmlns="http://www.w3.org/2000/svg">
    <g clip-path="url(#clip0_3338_16832)">
        <circle cx="36.2693" cy="28.0798" r="28.0798" fill="url(#paint0_radial_3338_16832)" fill-opacity="0.7" />
        <circle cx="36.2693" cy="28.0798" r="28.0798" fill="url(#paint1_radial_3338_16832)" fill-opacity="0.7" />
        <path d="M65.0191 98.1698C65.0191 101.745 61.9837 105.128 56.7357 107.647C51.5238 110.148 44.2884 111.71 36.2693 111.71C28.2503 111.71 21.0149 110.148 15.803 107.647C10.555 105.128 7.51953 101.745 7.51953 98.1698C7.51953 94.595 10.555 91.2119 15.803 88.6928C21.0149 86.1911 28.2503 84.6299 36.2693 84.6299C44.2884 84.6299 51.5238 86.1911 56.7357 88.6928C61.9837 91.2119 65.0191 94.595 65.0191 98.1698Z" fill="#393406" fill-opacity="0.4" stroke="url(#paint2_linear_3338_16832)" />
        <g filter="url(#filter0_f_3338_16832)">
            <ellipse cx="36.2692" cy="97.5852" rx="10.5299" ry="4.09497" fill="#FFE924" fill-opacity="0.3" />
            <path d="M46.2991 97.5852C46.2991 97.9634 46.104 98.3782 45.6332 98.8111C45.162 99.2443 44.4526 99.6575 43.5337 100.015C41.6993 100.728 39.1311 101.18 36.2692 101.18C33.4073 101.18 30.8391 100.728 29.0046 100.015C28.0858 99.6575 27.3764 99.2443 26.9052 98.8111C26.4344 98.3782 26.2393 97.9634 26.2393 97.5852C26.2393 97.207 26.4344 96.7922 26.9052 96.3593C27.3764 95.9261 28.0858 95.5129 29.0046 95.1556C30.8391 94.4422 33.4073 93.9902 36.2692 93.9902C39.1311 93.9902 41.6993 94.4422 43.5337 95.1556C44.4526 95.5129 45.162 95.9261 45.6332 96.3593C46.104 96.7922 46.2991 97.207 46.2991 97.5852Z" stroke="url(#paint3_linear_3338_16832)" />
        </g>
        <path opacity="0.3" d="M56.8297 98.1705C56.8297 99.3001 56.3166 100.414 55.3125 101.469C54.3059 102.527 52.8257 103.502 50.9583 104.332C47.2249 105.991 42.0321 107.03 36.2698 107.03C30.5075 107.03 25.3148 105.991 21.5813 104.332C19.714 103.502 18.2338 102.527 17.2271 101.469C16.223 100.414 15.71 99.3001 15.71 98.1705C15.71 97.0408 16.223 95.927 17.2271 94.8719C18.2338 93.8141 19.714 92.8388 21.5813 92.0089C25.3148 90.3496 30.5075 89.3105 36.2698 89.3105C42.0321 89.3105 47.2249 90.3496 50.9583 92.0089C52.8257 92.8388 54.3059 93.8141 55.3125 94.8719C56.3166 95.927 56.8297 97.0408 56.8297 98.1705Z" stroke="url(#paint4_linear_3338_16832)" />
        <path opacity="0.4" d="M72.0395 99.34C72.0395 104.226 68.1917 108.775 61.687 112.133C55.2079 115.477 46.2223 117.56 36.2697 117.56C26.3172 117.56 17.3316 115.477 10.8525 112.133C4.3478 108.775 0.5 104.226 0.5 99.34C0.5 94.4537 4.3478 89.9046 10.8525 86.5474C17.3316 83.2033 26.3172 81.1201 36.2697 81.1201C46.2223 81.1201 55.2079 83.2033 61.687 86.5474C68.1917 89.9046 72.0395 94.4537 72.0395 99.34Z" stroke="url(#paint5_linear_3338_16832)" />
        <rect x="33.9453" y="43.8457" width="4.24317" height="55.1612" fill="url(#paint6_linear_3338_16832)" />
        <rect x="34.4453" y="44.3457" width="3.24317" height="54.1612" stroke="url(#paint7_linear_3338_16832)" stroke-opacity="0.6" />
        <g filter="url(#filter1_b_3338_16832)">
            <circle cx="36.27" cy="28.0795" r="23.3998" fill="#393403" fill-opacity="0.7" />
        </g>
        <g filter="url(#filter2_f_3338_16832)">
            <circle cx="36.27" cy="28.0795" r="23.3998" stroke="url(#paint8_linear_3338_16832)" stroke-opacity="0.4" />
        </g>
        <circle opacity="0.3" cx="36.27" cy="28.0795" r="23.3998" stroke="url(#paint9_linear_3338_16832)" stroke-width="6" />
        <g filter="url(#filter3_f_3338_16832)">
            <circle cx="36.27" cy="28.0795" r="23.3998" stroke="url(#paint10_linear_3338_16832)" stroke-width="1.4" />
        </g>
        <g filter="url(#filter4_b_3338_16832)">
            <circle cx="36.27" cy="28.0795" r="23.3998" stroke="url(#paint11_linear_3338_16832)" stroke-width="1.4" />
        </g>
        <g filter="url(#filter5_bd_3338_16832)">
            <path d="M57.2902 12L118.001 12.3957C126.854 12.4534 134 19.6465 134 28.4998C134 37.3532 126.853 44.5464 118 44.6039L57 45C64.8049 35.4607 64.9933 21.6217 57.2902 12Z" fill="#302B04" fill-opacity="0.7" shape-rendering="crispEdges" />
            <path d="M58.0343 44.4933C65.1364 35.0885 65.3104 21.9893 58.3104 12.5067L117.997 12.8957C126.575 12.9516 133.5 19.9214 133.5 28.4998C133.5 37.0783 126.575 44.0482 117.997 44.1039L58.0343 44.4933Z" stroke="url(#paint12_angular_3338_16832)" shape-rendering="crispEdges" />
        </g>
        <g filter="url(#filter6_d_3338_16832)">
            <path d="M82.6122 21.636L81.0282 21.572V25.892H77.5562V35.924H79.1562V32.996H84.4522V33.652C84.4522 34.34 84.3402 34.404 83.5242 34.484L82.5962 34.58L83.1082 36.132L84.0042 36.036C85.5882 35.86 86.0522 35.652 86.0522 34.164V25.892H82.6122V21.636ZM73.5722 23.204C74.3402 23.716 75.7002 24.772 76.4362 25.46L77.2682 24.036C76.4842 23.348 75.2682 22.468 74.3722 21.956L73.5722 23.204ZM80.4682 24.532C79.9562 23.844 78.8842 22.692 78.1802 21.988L77.1242 23.028C77.8282 23.684 78.8362 24.868 79.3802 25.7L80.4682 24.532ZM85.3322 22.068C84.7402 22.868 83.8122 23.988 83.0762 24.724L84.1802 25.732C84.8682 25.044 85.8602 23.892 86.4842 23.06L85.3322 22.068ZM76.5802 27.572C75.8602 26.884 74.5002 25.892 73.7322 25.38L72.8362 26.644C73.6842 27.236 74.9642 28.212 75.7002 29.028L76.5802 27.572ZM84.4522 28.74H79.1562V27.38H84.4522V28.74ZM74.9002 35.956C75.2842 35.012 76.3722 31.348 76.6282 30.388L75.1082 29.876C74.8522 30.884 73.7482 34.452 73.3482 35.46L74.9002 35.956ZM79.1562 31.588V30.18H84.4522V31.588H79.1562ZM99.4822 23.988V21.78L98.1222 21.716V23.988H94.8422V36.068H96.2182V32.1L96.9542 32.692C97.9142 31.476 98.5382 30.468 98.9382 29.332C99.5942 30.452 100.266 31.764 100.65 32.564L101.322 32.132V33.396C101.322 34.292 101.21 34.452 100.41 34.532L99.5942 34.596L100.074 36.052L100.81 35.972C102.33 35.796 102.73 35.684 102.73 34.116V23.988H99.4822ZM92.8102 26.228C92.2822 26.276 91.5462 26.292 91.2102 26.308C91.6902 25.668 92.7622 23.684 93.3062 22.372L92.0262 21.812C91.4182 23.364 90.3302 25.396 89.8982 26.004C89.7222 26.244 89.5462 26.388 89.4022 26.5L89.7222 27.908C89.8982 27.86 90.1222 27.828 90.3302 27.812L91.9462 27.7C91.5142 28.388 91.0982 29.06 90.6342 29.7C90.3302 30.164 90.0582 30.372 89.7222 30.5L90.0742 31.972C90.2662 31.908 90.5062 31.86 90.7782 31.812C91.5142 31.684 93.8982 31.3 94.2662 31.252L94.2342 29.78C93.7702 29.86 92.4902 30.068 91.9302 30.148C92.4902 29.412 94.0262 26.836 94.8422 25.14L93.6582 24.516C93.4022 25.076 93.1142 25.636 92.8102 26.228ZM96.2182 25.444H98.1222C98.1222 28.084 97.6902 29.348 96.2182 31.252V25.444ZM99.3542 27.54C99.4342 26.9 99.4822 26.228 99.4822 25.444H101.322V30.868C100.73 29.796 99.8982 28.388 99.3542 27.54ZM94.3462 32.884C93.8022 33.012 89.6102 33.796 89.1142 33.796L89.3062 35.332C89.7542 35.268 94.0102 34.532 94.4262 34.468L94.3782 33.62L94.3462 32.884ZM113.344 26.82L118.208 23.94V22.356H111.072V23.908H115.52L110.624 26.948V28.276H112.176C111.808 29.572 111.28 30.692 110.368 31.796L110.272 30.74L109.088 31.156V26.772H110.576V25.252H109.088V21.636L107.536 21.572V25.252H105.936V26.772H107.536V31.668C106.816 31.908 106.096 32.132 105.472 32.308L105.808 33.86C106.992 33.444 108.592 32.916 109.744 32.484C109.376 32.868 108.976 33.236 108.48 33.62L109.648 34.596C111.824 32.82 113.008 30.788 113.6 28.276H114.912C114.272 31.54 113.328 33.22 110.976 35.236L112.224 36.212C114.752 34.036 115.856 31.908 116.32 28.276H117.616C117.568 29.108 117.36 32.388 117.28 33.06C117.152 33.94 117.008 34.084 115.904 34.164L114.912 34.244L115.408 35.796L116.288 35.732C118.16 35.604 118.64 35.268 118.768 33.62C118.832 32.58 119.088 27.46 119.152 26.82H113.344Z" fill="white" />
        </g>
        <g filter="url(#filter7_d_3338_16832)">
            <path fill-rule="evenodd" clip-rule="evenodd" d="M33.7332 32.4451V35.8676C33.7332 36.1608 33.8228 36.4469 33.9901 36.6876C28.2827 34.9317 21.8701 32.0248 21.6545 30.3546C20.8844 24.4339 30.6192 18.2619 34.9164 17.6077C38.8266 17.0101 49.7805 19.9455 50.1297 22.3974C50.2627 23.3413 49.6232 25.7155 48.5967 28.343C45.9947 28.3515 44.6956 28.3521 44.6986 28.3454C44.7938 28.1537 44.7213 28.1004 44.5958 28.0081C44.5451 27.9709 44.4858 27.9272 44.4253 27.8656C43.2847 26.9721 39.8962 25.9001 38.6231 25.6748C38.4463 25.6452 38.2649 25.6584 38.0942 25.7133C37.9236 25.7683 37.7686 25.8634 37.6422 25.9906C37.0734 26.5388 36.3786 27.1393 35.6738 27.7484C34.0373 29.1627 32.3474 30.6231 32.0587 31.5808C31.968 31.8776 32.5087 31.9137 32.9955 31.9461C33.2389 31.9623 33.4688 31.9777 33.5996 32.0242C33.6221 32.0316 33.6421 32.1272 33.6627 32.2255C33.6844 32.3291 33.7067 32.4358 33.7332 32.4451ZM42.9439 20.6482C42.6378 20.5444 42.3026 20.6215 42.0724 20.8468H42.073C41.3959 21.4947 40.8088 22.2305 40.3274 23.0346C39.2645 24.7844 45.3576 26.2761 46.0172 26.3387C46.6609 26.3981 47.7487 25.3614 48.2573 24.8767C48.279 24.856 48.2996 24.8364 48.3191 24.8178C48.802 24.3605 48.9672 23.6784 48.5663 23.0382C48.2402 22.5068 44.3008 21.1135 42.9439 20.6482ZM33.8571 19.2337C32.9581 19.8606 32.1344 20.5889 31.4021 21.4044C29.8892 23.1093 36.5532 23.8478 37.3513 23.7349C38.1494 23.6225 40.792 20.494 40.2387 20.1526C39.8269 19.8981 36.9158 19.2276 35.4642 18.9045C35.1882 18.844 34.9026 18.8421 34.6258 18.8988C34.349 18.9555 34.0871 19.0696 33.8571 19.2337ZM24.1611 27.2041C20.8874 30.5015 27.2077 31.3913 28.7467 31.2996C29.9651 31.2255 33.913 26.635 34.2106 25.7246C34.4724 24.9302 30.1042 23.7555 28.9854 23.4682C28.8056 23.4203 28.6174 23.4476 28.4582 23.5417C27.9286 23.8478 26.5924 24.7583 24.1611 27.2041ZM42.2151 38.0402C41.1674 38.3633 38.8339 38.0092 36.1019 37.2901H43.4116C43.0004 37.6624 42.5977 37.9211 42.2151 38.0402ZM35.193 30.7166C35.193 29.7316 35.9915 28.9331 36.9765 28.9331H48.3633C49.3482 28.9331 50.1467 29.7316 50.1467 30.7166V34.2835C50.1467 35.2685 49.3482 36.067 48.3633 36.067H36.9765C35.9915 36.067 35.193 35.2685 35.193 34.2835V30.7166ZM39.2609 31.4385C39.4414 31.2502 39.6573 30.9951 39.8024 30.8068L40.1517 31.0932C40.0143 31.2777 39.8024 31.517 39.6337 31.7015H40.0497V33.7066C40.0497 34.0794 39.9437 34.1854 39.5788 34.2285L39.2805 34.2599L39.1393 33.8008L39.4179 33.7694C39.5592 33.7537 39.5748 33.7145 39.5748 33.5771V33.5026H38.378V34.2325H37.9111V31.7015H38.3584C38.2211 31.5092 37.9895 31.2502 37.8365 31.0972L38.1583 30.7872C38.3152 30.9441 38.5703 31.2384 38.7076 31.4072L38.4173 31.7015H38.7469V30.7165L39.2217 30.7361V31.7015H39.5552L39.2609 31.4385ZM37.605 31.6975C37.4402 31.5406 37.1223 31.2934 36.9183 31.156L37.1694 30.7754C37.3813 30.9127 37.6874 31.1364 37.864 31.2816L37.605 31.6975ZM37.036 31.5759C37.2243 31.7015 37.5383 31.9487 37.7266 32.1174L37.4598 32.5451C37.2597 32.3568 36.9614 32.0978 36.7731 31.9722L37.036 31.5759ZM36.8712 34.0323C36.9654 33.793 37.2283 32.9297 37.2911 32.6942L37.7502 32.8473C37.656 33.1847 37.4716 33.7812 37.346 34.1775L36.8712 34.0323ZM43.3905 30.7636V31.2423H44.1792V33.7459C44.1792 34.1069 44.1007 34.1775 43.7083 34.2207L43.5043 34.2442L43.3669 33.8087L43.5592 33.7851C43.7123 33.7655 43.7358 33.7184 43.7358 33.5261V33.2593L43.5906 33.3692C43.5169 33.2185 43.4064 33.0205 43.2935 32.8183L43.2935 32.8183L43.2178 32.6825C43.1197 32.9218 42.9785 33.1455 42.7705 33.4123L42.6096 33.2789V34.2285H42.1819V31.7015C41.9857 32.0939 41.7228 32.5294 41.5658 32.7139C41.6264 32.7024 41.698 32.6902 41.7702 32.678L41.7702 32.678L41.7704 32.6779C41.8711 32.6608 41.9731 32.6435 42.0485 32.6275L42.0563 33.0827C41.9661 33.0945 41.4206 33.1847 41.1852 33.2279L41.0596 33.2515L40.9497 32.8041C41.04 32.7727 41.1028 32.7178 41.2009 32.5726C41.2578 32.4929 41.3106 32.4111 41.3638 32.3288L41.3638 32.3287L41.3638 32.3287L41.3638 32.3287L41.4245 32.2351C41.3692 32.2405 41.3148 32.2434 41.2644 32.2461L41.2643 32.2461L41.2642 32.2461H41.2642C41.2039 32.2493 41.1495 32.2523 41.1067 32.2587C41.0596 32.2626 41.0164 32.2665 40.9733 32.2783L40.8713 31.8427C40.8987 31.8231 40.9458 31.776 40.9811 31.7289C41.0675 31.6191 41.3343 31.1285 41.4912 30.7479L41.8719 30.9206C41.7345 31.2267 41.4795 31.674 41.3853 31.7996L41.4114 31.7984C41.4963 31.7948 41.5955 31.7906 41.6914 31.7799C41.7581 31.6544 41.8248 31.5249 41.8837 31.3993L42.1819 31.5523V31.2423H42.9745V30.744L43.3905 30.7636ZM40.8477 33.5968C40.9694 33.5811 41.915 33.4123 42.0445 33.3809L42.0524 33.6007L42.0681 33.8518C42.0238 33.8589 41.8032 33.9013 41.5654 33.9469L41.5653 33.9469L41.5651 33.947C41.276 34.0025 40.9607 34.063 40.9026 34.0716L40.8477 33.5968ZM47.0374 31.933C47.2846 31.7996 47.7516 31.5053 47.9949 31.3248V30.8617H46.3428V31.3248H47.1826C46.9824 31.4699 46.59 31.7329 46.1819 31.933V32.3764H46.5233C46.4292 32.6589 46.284 32.9571 46.0525 33.2397L46.0132 32.8473C45.9543 32.8747 45.8837 32.9022 45.8092 32.9297V32.0154H46.1074V31.5523H45.8092V30.744L45.3344 30.7244V31.5523H44.989V32.0154H45.3344V33.0906C45.1421 33.1534 44.9655 33.2004 44.8713 33.2201L44.9459 33.6792C45.2794 33.5968 45.7228 33.432 45.9897 33.3142C45.9073 33.4084 45.817 33.4987 45.7111 33.5889L46.0681 33.8871C46.5547 33.4045 46.8059 32.8747 46.9471 32.3764H47.1865C47.1119 32.7806 46.9118 33.4516 46.2683 33.9617L46.6214 34.2835C47.3003 33.687 47.5161 32.9297 47.5985 32.3764H47.783C47.7712 32.5844 47.7123 33.2946 47.7005 33.4241C47.6849 33.5928 47.6456 33.6517 47.5004 33.6674L47.1708 33.6988L47.3199 34.1893L47.5946 34.1618C48.0105 34.1187 48.0969 33.997 48.1479 33.6517L48.2617 31.933H47.0374ZM42.9745 31.6858H42.6096V32.8865C42.8843 32.5098 42.9628 32.2351 42.9745 31.6858ZM39.5748 32.3842H38.378V32.1527H39.5748V32.3842ZM38.378 33.0709V32.8237H39.5748V33.0709H38.378ZM43.3591 32.1292C43.3787 31.9918 43.3866 31.8466 43.3905 31.6858H43.7358V32.7256C43.6102 32.5177 43.469 32.2901 43.3591 32.1292Z" fill="url(#paint13_linear_3338_16832)" />
        </g>
    </g>
    <defs>
        <filter id="filter0_f_3338_16832" x="24.7393" y="92.4902" width="23.0596" height="10.1904" filterUnits="userSpaceOnUse" color-interpolation-filters="sRGB">
            <feFlood flood-opacity="0" result="BackgroundImageFix" />
            <feBlend mode="normal" in="SourceGraphic" in2="BackgroundImageFix" result="shape" />
            <feGaussianBlur stdDeviation="0.5" result="effect1_foregroundBlur_3338_16832" />
        </filter>
        <filter id="filter1_b_3338_16832" x="10.8701" y="2.67969" width="50.7998" height="50.7998" filterUnits="userSpaceOnUse" color-interpolation-filters="sRGB">
            <feFlood flood-opacity="0" result="BackgroundImageFix" />
            <feGaussianBlur in="BackgroundImageFix" stdDeviation="1" />
            <feComposite in2="SourceAlpha" operator="in" result="effect1_backgroundBlur_3338_16832" />
            <feBlend mode="normal" in="SourceGraphic" in2="effect1_backgroundBlur_3338_16832" result="shape" />
        </filter>
        <filter id="filter2_f_3338_16832" x="11.3701" y="3.17969" width="49.7998" height="49.7998" filterUnits="userSpaceOnUse" color-interpolation-filters="sRGB">
            <feFlood flood-opacity="0" result="BackgroundImageFix" />
            <feBlend mode="normal" in="SourceGraphic" in2="BackgroundImageFix" result="shape" />
            <feGaussianBlur stdDeviation="0.5" result="effect1_foregroundBlur_3338_16832" />
        </filter>
        <filter id="filter3_f_3338_16832" x="10.1699" y="1.97949" width="52.2002" height="52.2002" filterUnits="userSpaceOnUse" color-interpolation-filters="sRGB">
            <feFlood flood-opacity="0" result="BackgroundImageFix" />
            <feBlend mode="normal" in="SourceGraphic" in2="BackgroundImageFix" result="shape" />
            <feGaussianBlur stdDeviation="1" result="effect1_foregroundBlur_3338_16832" />
        </filter>
        <filter id="filter4_b_3338_16832" x="8.16992" y="-0.0205078" width="56.2002" height="56.2002" filterUnits="userSpaceOnUse" color-interpolation-filters="sRGB">
            <feFlood flood-opacity="0" result="BackgroundImageFix" />
            <feGaussianBlur in="BackgroundImageFix" stdDeviation="2" />
            <feComposite in2="SourceAlpha" operator="in" result="effect1_backgroundBlur_3338_16832" />
            <feBlend mode="normal" in="SourceGraphic" in2="effect1_backgroundBlur_3338_16832" result="shape" />
        </filter>
        <filter id="filter5_bd_3338_16832" x="47" y="4" width="97" height="53" filterUnits="userSpaceOnUse" color-interpolation-filters="sRGB">
            <feFlood flood-opacity="0" result="BackgroundImageFix" />
            <feGaussianBlur in="BackgroundImageFix" stdDeviation="2" />
            <feComposite in2="SourceAlpha" operator="in" result="effect1_backgroundBlur_3338_16832" />
            <feColorMatrix in="SourceAlpha" type="matrix" values="0 0 0 0 0 0 0 0 0 0 0 0 0 0 0 0 0 0 127 0" result="hardAlpha" />
            <feOffset dy="2" />
            <feGaussianBlur stdDeviation="5" />
            <feComposite in2="hardAlpha" operator="out" />
            <feColorMatrix type="matrix" values="0 0 0 0 0.125729 0 0 0 0 0.141667 0 0 0 0 0.14071 0 0 0 0.6 0" />
            <feBlend mode="normal" in2="effect1_backgroundBlur_3338_16832" result="effect2_dropShadow_3338_16832" />
            <feBlend mode="normal" in="SourceGraphic" in2="effect2_dropShadow_3338_16832" result="shape" />
        </filter>
        <filter id="filter6_d_3338_16832" x="68.8359" y="19.5723" width="54.3164" height="22.6396" filterUnits="userSpaceOnUse" color-interpolation-filters="sRGB">
            <feFlood flood-opacity="0" result="BackgroundImageFix" />
            <feColorMatrix in="SourceAlpha" type="matrix" values="0 0 0 0 0 0 0 0 0 0 0 0 0 0 0 0 0 0 127 0" result="hardAlpha" />
            <feOffset dy="2" />
            <feGaussianBlur stdDeviation="2" />
            <feComposite in2="hardAlpha" operator="out" />
            <feColorMatrix type="matrix" values="0 0 0 0 1 0 0 0 0 0.9 0 0 0 0 0 0 0 0 0.25 0" />
            <feBlend mode="normal" in2="BackgroundImageFix" result="effect1_dropShadow_3338_16832" />
            <feBlend mode="normal" in="SourceGraphic" in2="effect1_dropShadow_3338_16832" result="shape" />
        </filter>
        <filter id="filter7_d_3338_16832" x="18.6113" y="14.5293" width="34.5361" height="26.6309" filterUnits="userSpaceOnUse" color-interpolation-filters="sRGB">
            <feFlood flood-opacity="0" result="BackgroundImageFix" />
            <feColorMatrix in="SourceAlpha" type="matrix" values="0 0 0 0 0 0 0 0 0 0 0 0 0 0 0 0 0 0 127 0" result="hardAlpha" />
            <feOffset />
            <feGaussianBlur stdDeviation="1.5" />
            <feComposite in2="hardAlpha" operator="out" />
            <feColorMatrix type="matrix" values="0 0 0 0 0.8 0 0 0 0 0.722333 0 0 0 0 0.0233333 0 0 0 0.7 0" />
            <feBlend mode="normal" in2="BackgroundImageFix" result="effect1_dropShadow_3338_16832" />
            <feBlend mode="normal" in="SourceGraphic" in2="effect1_dropShadow_3338_16832" result="shape" />
        </filter>
        <radialGradient id="paint0_radial_3338_16832" cx="0" cy="0" r="1" gradientUnits="userSpaceOnUse" gradientTransform="translate(42.1192 34.5148) rotate(42.5104) scale(38.0922)">
            <stop stop-color="#24FFF0" stop-opacity="0" />
            <stop offset="0.89458" stop-color="#24FFF0" stop-opacity="0" />
            <stop offset="1" stop-color="#FFE924" />
        </radialGradient>
        <radialGradient id="paint1_radial_3338_16832" cx="0" cy="0" r="1" gradientUnits="userSpaceOnUse" gradientTransform="translate(32.1743 22.2298) rotate(-122.106) scale(35.2214)">
            <stop offset="0.91345" stop-color="#FFF069" stop-opacity="0" />
            <stop offset="1" stop-color="#FFED4B" />
        </radialGradient>
        <linearGradient id="paint2_linear_3338_16832" x1="36.2693" y1="84.1299" x2="36.2693" y2="112.21" gradientUnits="userSpaceOnUse">
            <stop stop-color="#FFE924" stop-opacity="0" />
            <stop offset="1" stop-color="#FFE924" />
        </linearGradient>
        <linearGradient id="paint3_linear_3338_16832" x1="36.2692" y1="93.4902" x2="36.2692" y2="101.68" gradientUnits="userSpaceOnUse">
            <stop stop-color="#FFE924" stop-opacity="0" />
            <stop offset="1" stop-color="#FFE924" />
        </linearGradient>
        <linearGradient id="paint4_linear_3338_16832" x1="36.2698" y1="88.8105" x2="36.2698" y2="107.53" gradientUnits="userSpaceOnUse">
            <stop stop-color="#FFE924" stop-opacity="0" />
            <stop offset="1" stop-color="#FFE924" />
        </linearGradient>
        <linearGradient id="paint5_linear_3338_16832" x1="36.2697" y1="80.6201" x2="36.2697" y2="118.06" gradientUnits="userSpaceOnUse">
            <stop stop-color="#FFE924" stop-opacity="0" />
            <stop offset="1" stop-color="#FFE924" />
        </linearGradient>
        <linearGradient id="paint6_linear_3338_16832" x1="36.0669" y1="43.8457" x2="36.0669" y2="99.0069" gradientUnits="userSpaceOnUse">
            <stop offset="0.09375" stop-color="#FFF06A" stop-opacity="0" />
            <stop offset="0.661458" stop-color="#FFEB33" />
            <stop offset="1" stop-color="#FFE924" stop-opacity="0" />
        </linearGradient>
        <linearGradient id="paint7_linear_3338_16832" x1="36.0669" y1="43.8457" x2="36.0669" y2="99.0069" gradientUnits="userSpaceOnUse">
            <stop offset="0.171875" stop-color="#FFED46" stop-opacity="0.01" />
            <stop offset="0.557292" stop-color="#FFF170" />
            <stop offset="1" stop-color="#FFEB3C" stop-opacity="0" />
        </linearGradient>
        <linearGradient id="paint8_linear_3338_16832" x1="36.27" y1="4.67969" x2="36.27" y2="51.4794" gradientUnits="userSpaceOnUse">
            <stop offset="0.627203" stop-color="#FFEB3C" stop-opacity="0" />
            <stop offset="1" stop-color="#FFE924" />
        </linearGradient>
        <linearGradient id="paint9_linear_3338_16832" x1="36.27" y1="4.67969" x2="36.27" y2="51.4794" gradientUnits="userSpaceOnUse">
            <stop offset="0.291539" stop-color="#FFE924" stop-opacity="0" />
            <stop offset="1" stop-color="#FFE924" />
        </linearGradient>
        <linearGradient id="paint10_linear_3338_16832" x1="38.0249" y1="11.6996" x2="36.27" y2="51.4794" gradientUnits="userSpaceOnUse">
            <stop offset="0.248912" stop-color="#FFEC3E" stop-opacity="0" />
            <stop offset="1" stop-color="#FFE924" />
        </linearGradient>
        <linearGradient id="paint11_linear_3338_16832" x1="36.27" y1="4.67969" x2="36.27" y2="50.9181" gradientUnits="userSpaceOnUse">
            <stop offset="0.171875" stop-color="#FFF7B4" stop-opacity="0" />
            <stop offset="1" stop-color="#FFF065" />
        </linearGradient>
        <radialGradient id="paint12_angular_3338_16832" cx="0" cy="0" r="1" gradientUnits="userSpaceOnUse" gradientTransform="translate(80.7972 28.5) rotate(-90) scale(16.5 24.2959)">
            <stop stop-color="white" />
            <stop offset="0.466368" stop-color="#FFF16F" stop-opacity="0.57" />
            <stop offset="0.683432" stop-color="#FFF6A3" stop-opacity="0" />
            <stop offset="1" stop-color="white" stop-opacity="0" />
        </radialGradient>
        <linearGradient id="paint13_linear_3338_16832" x1="36.0718" y1="17.3552" x2="36.0718" y2="37.9865" gradientUnits="userSpaceOnUse">
            <stop stop-color="#FFEB38" />
            <stop offset="1" stop-color="#FFFAC9" />
        </linearGradient>
        <clipPath id="clip0_3338_16832">
            <rect width="134" height="118.06" fill="white" />
        </clipPath>
    </defs>
</svg>