{"buffers":[{"uri":"0_B3_SWSta_Pack.bin","byteLength":69452},{"byteLength":235128,"extensions":{"EXT_meshopt_compression":{"fallback":true}}}],"asset":{"version":"2.0","generator":"gltfpack 0.18"},"extensionsUsed":["KHR_mesh_quantization","EXT_meshopt_compression","KHR_texture_transform"],"extensionsRequired":["KHR_mesh_quantization","EXT_meshopt_compression"],"bufferViews":[{"buffer":1,"byteOffset":0,"byteLength":100992,"byteStride":8,"target":34962,"extensions":{"EXT_meshopt_compression":{"buffer":0,"byteOffset":0,"byteLength":35063,"byteStride":8,"mode":"ATTRIBUTES","count":12624}}},{"buffer":1,"byteOffset":100992,"byteLength":50496,"byteStride":4,"target":34962,"extensions":{"EXT_meshopt_compression":{"buffer":0,"byteOffset":35064,"byteLength":11463,"byteStride":4,"mode":"ATTRIBUTES","count":12624}}},{"buffer":1,"byteOffset":151488,"byteLength":63792,"target":34963,"extensions":{"EXT_meshopt_compression":{"buffer":0,"byteOffset":46528,"byteLength":11056,"byteStride":2,"mode":"TRIANGLES","count":31896}}},{"buffer":1,"byteOffset":215280,"byteLength":19848,"byteStride":4,"target":34962,"extensions":{"EXT_meshopt_compression":{"buffer":0,"byteOffset":57584,"byteLength":11867,"byteStride":4,"mode":"ATTRIBUTES","count":4962}}}],"accessors":[{"bufferView":0,"byteOffset":0,"componentType":5123,"count":324,"type":"VEC3","min":[7,232,907],"max":[152,751,2036]},{"bufferView":1,"byteOffset":0,"componentType":5120,"count":324,"type":"VEC3","normalized":true},{"bufferView":2,"byteOffset":0,"componentType":5123,"count":948,"type":"SCALAR"},{"bufferView":0,"byteOffset":2592,"componentType":5123,"count":244,"type":"VEC3","min":[0,184,856],"max":[158,664,2084]},{"bufferView":1,"byteOffset":1296,"componentType":5120,"count":244,"type":"VEC3","normalized":true},{"bufferView":2,"byteOffset":1896,"componentType":5123,"count":492,"type":"SCALAR"},{"bufferView":0,"byteOffset":4544,"componentType":5123,"count":227,"type":"VEC3","min":[17,221,997],"max":[135,646,1991]},{"bufferView":1,"byteOffset":2272,"componentType":5120,"count":227,"type":"VEC3","normalized":true},{"bufferView":3,"byteOffset":0,"componentType":5123,"count":227,"type":"VEC2","normalized":true},{"bufferView":2,"byteOffset":2880,"componentType":5123,"count":276,"type":"SCALAR"},{"bufferView":0,"byteOffset":6360,"componentType":5123,"count":552,"type":"VEC3","min":[0,221,856],"max":[158,754,2084]},{"bufferView":1,"byteOffset":3180,"componentType":5120,"count":552,"type":"VEC3","normalized":true},{"bufferView":2,"byteOffset":3432,"componentType":5123,"count":3090,"type":"SCALAR"},{"bufferView":0,"byteOffset":10776,"componentType":5123,"count":1502,"type":"VEC3","min":[2611,3551,78],"max":[6235,12919,610]},{"bufferView":1,"byteOffset":5388,"componentType":5120,"count":1502,"type":"VEC3","normalized":true},{"bufferView":2,"byteOffset":9612,"componentType":5123,"count":2754,"type":"SCALAR"},{"bufferView":0,"byteOffset":22792,"componentType":5123,"count":90,"type":"VEC3","min":[3482,5775,79],"max":[3641,6814,524]},{"bufferView":1,"byteOffset":11396,"componentType":5120,"count":90,"type":"VEC3","normalized":true},{"bufferView":2,"byteOffset":15120,"componentType":5123,"count":246,"type":"SCALAR"},{"bufferView":0,"byteOffset":23512,"componentType":5123,"count":225,"type":"VEC3","min":[3505,5775,80],"max":[3617,6769,505]},{"bufferView":1,"byteOffset":11756,"componentType":5120,"count":225,"type":"VEC3","normalized":true},{"bufferView":3,"byteOffset":908,"componentType":5123,"count":225,"type":"VEC2","normalized":true},{"bufferView":2,"byteOffset":15612,"componentType":5123,"count":276,"type":"SCALAR"},{"bufferView":0,"byteOffset":25312,"componentType":5123,"count":3234,"type":"VEC3","min":[2611,3551,75],"max":[6235,12919,613]},{"bufferView":1,"byteOffset":12656,"componentType":5120,"count":3234,"type":"VEC3","normalized":true},{"bufferView":2,"byteOffset":16164,"componentType":5123,"count":12084,"type":"SCALAR"},{"bufferView":0,"byteOffset":51184,"componentType":5123,"count":30,"type":"VEC3","min":[3049,8234,249],"max":[5736,8745,337]},{"bufferView":1,"byteOffset":25592,"componentType":5120,"count":30,"type":"VEC3","normalized":true},{"bufferView":3,"byteOffset":1808,"componentType":5123,"count":30,"type":"VEC2","normalized":true},{"bufferView":2,"byteOffset":40332,"componentType":5123,"count":54,"type":"SCALAR"},{"bufferView":0,"byteOffset":51424,"componentType":5123,"count":1716,"type":"VEC3","min":[2609,3547,44],"max":[6237,12928,495]},{"bufferView":1,"byteOffset":25712,"componentType":5120,"count":1716,"type":"VEC3","normalized":true},{"bufferView":2,"byteOffset":40440,"componentType":5123,"count":2856,"type":"SCALAR"},{"bufferView":0,"byteOffset":65152,"componentType":5123,"count":56,"type":"VEC3","min":[2698,6918,82],"max":[6137,10371,82]},{"bufferView":1,"byteOffset":32576,"componentType":5120,"count":56,"type":"VEC3","normalized":true},{"bufferView":3,"byteOffset":1928,"componentType":5123,"count":56,"type":"VEC2","normalized":true},{"bufferView":2,"byteOffset":46152,"componentType":5123,"count":120,"type":"SCALAR"},{"bufferView":0,"byteOffset":65600,"componentType":5123,"count":112,"type":"VEC3","min":[2341,0,8],"max":[6510,16383,16]},{"bufferView":1,"byteOffset":32800,"componentType":5120,"count":112,"type":"VEC3","normalized":true},{"bufferView":3,"byteOffset":2152,"componentType":5123,"count":112,"type":"VEC2","normalized":true},{"bufferView":2,"byteOffset":46392,"componentType":5123,"count":168,"type":"SCALAR"},{"bufferView":0,"byteOffset":66496,"componentType":5123,"count":1290,"type":"VEC3","min":[4148,3143,0],"max":[4694,13341,324]},{"bufferView":1,"byteOffset":33248,"componentType":5120,"count":1290,"type":"VEC3","normalized":true},{"bufferView":3,"byteOffset":2600,"componentType":5123,"count":1290,"type":"VEC2","normalized":true},{"bufferView":2,"byteOffset":46728,"componentType":5123,"count":2868,"type":"SCALAR"},{"bufferView":0,"byteOffset":76816,"componentType":5123,"count":1290,"type":"VEC3","min":[2363,3143,0],"max":[6485,13341,324]},{"bufferView":1,"byteOffset":38408,"componentType":5120,"count":1290,"type":"VEC3","normalized":true},{"bufferView":3,"byteOffset":7760,"componentType":5123,"count":1290,"type":"VEC2","normalized":true},{"bufferView":2,"byteOffset":52464,"componentType":5123,"count":2868,"type":"SCALAR"},{"bufferView":0,"byteOffset":87136,"componentType":5123,"count":48,"type":"VEC3","min":[2638,3568,288],"max":[6207,12906,420]},{"bufferView":1,"byteOffset":43568,"componentType":5120,"count":48,"type":"VEC3","normalized":true},{"bufferView":3,"byteOffset":12920,"componentType":5123,"count":48,"type":"VEC2","normalized":true},{"bufferView":2,"byteOffset":58200,"componentType":5123,"count":72,"type":"SCALAR"},{"bufferView":0,"byteOffset":87520,"componentType":5123,"count":1276,"type":"VEC3","min":[2609,3547,50],"max":[6233,12928,501]},{"bufferView":1,"byteOffset":43760,"componentType":5120,"count":1276,"type":"VEC3","normalized":true},{"bufferView":3,"byteOffset":13112,"componentType":5123,"count":1276,"type":"VEC2","normalized":true},{"bufferView":2,"byteOffset":58344,"componentType":5123,"count":2076,"type":"SCALAR"},{"bufferView":0,"byteOffset":97728,"componentType":5123,"count":408,"type":"VEC3","min":[2739,3547,80],"max":[6107,12906,420]},{"bufferView":1,"byteOffset":48864,"componentType":5120,"count":408,"type":"VEC3","normalized":true},{"bufferView":3,"byteOffset":18216,"componentType":5123,"count":408,"type":"VEC2","normalized":true},{"bufferView":2,"byteOffset":62496,"componentType":5123,"count":648,"type":"SCALAR"}],"samplers":[{"magFilter":9729,"minFilter":9987}],"images":[{"uri":"T_DianFuTi1_D2_0_25k.jpg"},{"uri":"T_B_elevator1.png"},{"uri":"T_A_SWStat_PlaneSignADiffuseMap_D.jpg"},{"uri":"T_SW_RailTiling_N.png"},{"uri":"T_SW_RailTiling_D.jpg"},{"uri":"T_SW_RailTiling_ORM.jpg"},{"uri":"T_SW_Train_Line4.jpg"},{"uri":"T_SW_Train_ORM0.jpg"},{"uri":"T_SW_Train_Line1.jpg"},{"uri":"T_SW_Train_Line1And4_All.jpg"},{"uri":"T_Marble02_N01.png"},{"uri":"T_Marble02_LightGrey_ThinGap.jpg"},{"uri":"T_Marble02_R0.png"},{"uri":"T_DTC_B2_QiangZhuan1.jpg"}],"textures":[{"sampler":0,"source":0},{"sampler":0,"source":1},{"sampler":0,"source":2},{"sampler":0,"source":3},{"sampler":0,"source":4},{"sampler":0,"source":5},{"sampler":0,"source":6},{"sampler":0,"source":7},{"sampler":0,"source":8},{"sampler":0,"source":9},{"sampler":0,"source":10},{"sampler":0,"source":11},{"sampler":0,"source":12},{"sampler":0,"source":13}],"materials":[{"name":"M_Uni_Glass_Trans","pbrMetallicRoughness":{"baseColorFactor":[0.344702661,0.406809658,0.532374084,0.899999976],"metallicFactor":0.349999994,"roughnessFactor":0},"alphaMode":"BLEND"},{"name":"M_Uni_Metal_Copper","pbrMetallicRoughness":{"baseColorFactor":[0.427450985,0.325490206,0.235294119,1],"metallicFactor":0.899999976,"roughnessFactor":0.210000008},"doubleSided":true},{"name":"M_escalator_StairSurf","pbrMetallicRoughness":{"baseColorTexture":{"index":0,"extensions":{"KHR_texture_transform":{"offset":[0.154464722,-3.37154961],"scale":[11.1092167,127.742622]}}},"roughnessFactor":0.600000024},"doubleSided":true},{"name":"M_Uni_metalGrey","pbrMetallicRoughness":{"baseColorFactor":[0.302158266,0.302158266,0.302158266,1],"roughnessFactor":0.200000003},"doubleSided":true},{"name":"M_B_elevator1","pbrMetallicRoughness":{"baseColorTexture":{"index":1,"extensions":{"KHR_texture_transform":{"offset":[0.0250309948,0.512148976],"scale":[14.4004707,7.83150053]}}},"metallicFactor":0},"doubleSided":true},{"name":"M_Uni_whiteWall","pbrMetallicRoughness":{"baseColorFactor":[0.935251832,0.935251832,0.935251832,1],"metallicFactor":0},"doubleSided":true},{"name":"M_SWSation_SignPlane_ZOffUp","pbrMetallicRoughness":{"baseColorTexture":{"index":2,"extensions":{"KHR_texture_transform":{"offset":[0.0102228373,0.00191372633],"scale":[15.7469206,15.8570232]}}},"metallicFactor":0},"emissiveTexture":{"index":2,"extensions":{"KHR_texture_transform":{"offset":[0.0102228373,0.00191372633],"scale":[15.7469206,15.8570232]}}},"emissiveFactor":[1,1,1],"doubleSided":true},{"name":"M_Uni_SW_rail","pbrMetallicRoughness":{"baseColorTexture":{"index":4,"extensions":{"KHR_texture_transform":{"offset":[-34.5004387,-0.0373228788],"scale":[616.286316,16.8467407]}}},"metallicRoughnessTexture":{"index":5,"extensions":{"KHR_texture_transform":{"offset":[-34.5004387,-0.0373228788],"scale":[616.286316,16.8467407]}}}},"normalTexture":{"index":3,"scale":0.300000012,"extensions":{"KHR_texture_transform":{"offset":[-34.5004387,-0.0373228788],"scale":[616.286316,16.8467407]}}},"doubleSided":true},{"name":"M_SW_Line4_TrainSurf","pbrMetallicRoughness":{"baseColorTexture":{"index":6,"extensions":{"KHR_texture_transform":{"offset":[0.00788855553,-0.0537012815],"scale":[15.336627,13.1365852]}}},"metallicFactor":0,"metallicRoughnessTexture":{"index":7,"extensions":{"KHR_texture_transform":{"offset":[0.00788855553,-0.0537012815],"scale":[15.336627,13.1365852]}}}},"doubleSided":true},{"name":"M_SW_Line1_TrainSurf","pbrMetallicRoughness":{"baseColorTexture":{"index":8,"extensions":{"KHR_texture_transform":{"offset":[0.00788855553,-0.0537012815],"scale":[15.336627,13.1365852]}}},"metallicFactor":0,"metallicRoughnessTexture":{"index":7,"extensions":{"KHR_texture_transform":{"offset":[0.00788855553,-0.0537012815],"scale":[15.336627,13.1365852]}}}},"doubleSided":true},{"name":"M_SW_Line1_Tilling_To_LingP","pbrMetallicRoughness":{"baseColorTexture":{"index":9,"extensions":{"KHR_texture_transform":{"offset":[0.000515833497,0.00361168385],"scale":[252.776733,15.915946]}}},"metallicFactor":0,"roughnessFactor":0.5},"doubleSided":true},{"name":"M_ComplexPattern_Tile_Main","pbrMetallicRoughness":{"baseColorTexture":{"index":11,"extensions":{"KHR_texture_transform":{"offset":[-14.3528509,-1.68751431],"scale":[475.400055,353.048004]}}},"metallicFactor":0,"metallicRoughnessTexture":{"index":12,"extensions":{"KHR_texture_transform":{"offset":[-14.3528509,-1.68751431],"scale":[475.400055,353.048004]}}}},"normalTexture":{"index":10,"scale":0.699999988,"extensions":{"KHR_texture_transform":{"offset":[-14.3528509,-1.68751431],"scale":[475.400055,353.048004]}}},"doubleSided":true},{"name":"M_Uni_Subway_WallTilesA","pbrMetallicRoughness":{"baseColorTexture":{"index":13,"extensions":{"KHR_texture_transform":{"offset":[-19.3729382,1.1500001],"scale":[636.07959,307.637421]}}},"metallicFactor":0,"roughnessFactor":0.400000006},"doubleSided":true}],"meshes":[{"primitives":[{"attributes":{"POSITION":0,"NORMAL":1},"indices":2,"material":0},{"attributes":{"POSITION":3,"NORMAL":4},"indices":5,"material":1},{"attributes":{"POSITION":6,"NORMAL":7,"TEXCOORD_0":8},"indices":9,"material":2},{"attributes":{"POSITION":10,"NORMAL":11},"indices":12,"material":3}]},{"primitives":[{"attributes":{"POSITION":13,"NORMAL":14},"indices":15,"material":0},{"attributes":{"POSITION":16,"NORMAL":17},"indices":18,"material":1},{"attributes":{"POSITION":19,"NORMAL":20,"TEXCOORD_0":21},"indices":22,"material":2},{"attributes":{"POSITION":23,"NORMAL":24},"indices":25,"material":3},{"attributes":{"POSITION":26,"NORMAL":27,"TEXCOORD_0":28},"indices":29,"material":4},{"attributes":{"POSITION":30,"NORMAL":31},"indices":32,"material":5},{"attributes":{"POSITION":33,"NORMAL":34,"TEXCOORD_0":35},"indices":36,"material":6},{"attributes":{"POSITION":37,"NORMAL":38,"TEXCOORD_0":39},"indices":40,"material":7},{"attributes":{"POSITION":41,"NORMAL":42,"TEXCOORD_0":43},"indices":44,"material":8},{"attributes":{"POSITION":45,"NORMAL":46,"TEXCOORD_0":47},"indices":48,"material":9},{"attributes":{"POSITION":49,"NORMAL":50,"TEXCOORD_0":51},"indices":52,"material":10},{"attributes":{"POSITION":53,"NORMAL":54,"TEXCOORD_0":55},"indices":56,"material":11},{"attributes":{"POSITION":57,"NORMAL":58,"TEXCOORD_0":59},"indices":60,"material":12}]}],"nodes":[{"mesh":0,"translation":[-0.931296706,-5.7004776,-17.2854176],"scale":[0.0117577789,0.0117577789,0.0117577789]},{"mesh":0,"translation":[-0.931296706,-5.7004776,-17.2854176],"scale":[0.0117577789,0.0117577789,0.0117577789]},{"mesh":0,"translation":[-0.931296706,-5.7004776,-17.2854176],"scale":[0.0117577789,0.0117577789,0.0117577789]},{"mesh":0,"translation":[-0.931296706,-5.7004776,-17.2854176],"scale":[0.0117577789,0.0117577789,0.0117577789]},{"mesh":0,"translation":[-0.931296706,-5.7004776,-17.2854176],"scale":[0.0117577789,0.0117577789,0.0117577789]},{"mesh":0,"translation":[-0.931296706,-5.7004776,-17.2854176],"scale":[0.0117577789,0.0117577789,0.0117577789]},{"mesh":0,"translation":[-0.931296706,-5.7004776,-17.2854176],"scale":[0.0117577789,0.0117577789,0.0117577789]},{"mesh":1,"translation":[-0.931296706,-5.7004776,-17.2854176],"scale":[0.0117577789,0.0117577789,0.0117577789]},{"name":"SM_B3_SWSta_escalatorD_Ins_07","translation":[65.5408859,68.3221054,-13.2394485],"rotation":[0.707106829,0,0,0.707106709],"children":[0]},{"name":"SM_B3_SWSta_escalatorD_Ins_06","translation":[61.1989822,68.3221054,-13.2394485],"rotation":[0.707106829,0,0,0.707106709],"children":[1]},{"name":"SM_B3_SWSta_escalatorD_Ins_04","translation":[36.6002274,68.3221054,-13.2394485],"rotation":[0.707106829,0,0,0.707106709],"children":[2]},{"name":"SM_B3_SWSta_escalatorD_Ins_03","translation":[65.5409088,114.399376,-13.2394562],"rotation":[-4.21468485e-07,0.707106709,0.707106829,-4.83285817e-07],"children":[3]},{"name":"SM_B3_SWSta_escalatorD_Ins_02","translation":[61.1989822,114.399376,-13.2394562],"rotation":[-4.21468485e-07,0.707106709,0.707106829,-4.83285817e-07],"children":[4]},{"name":"SM_B3_SWSta_escalatorD_Ins_01","translation":[40.9421158,114.399376,-13.2394562],"rotation":[-4.21468485e-07,0.707106709,0.707106829,-4.83285817e-07],"children":[5]},{"name":"SM_B3_SWSta_escalatorD_Ins_00","translation":[36.6002045,114.399376,-13.2394562],"rotation":[-4.21468485e-07,0.707106709,0.707106829,-4.83285817e-07],"children":[6]}],"scenes":[{"nodes":[7,8,9,10,11,12,13,14]}],"scene":0}