{"buffers":[{"uri":"6_3F_DepartUp_Pack.bin","byteLength":95244},{"byteLength":329612,"extensions":{"EXT_meshopt_compression":{"fallback":true}}}],"asset":{"version":"2.0","generator":"gltfpack 0.18"},"extensionsUsed":["KHR_mesh_quantization","EXT_meshopt_compression","KHR_texture_transform"],"extensionsRequired":["KHR_mesh_quantization","EXT_meshopt_compression"],"bufferViews":[{"buffer":1,"byteOffset":0,"byteLength":151352,"byteStride":8,"target":34962,"extensions":{"EXT_meshopt_compression":{"buffer":0,"byteOffset":0,"byteLength":49339,"byteStride":8,"mode":"ATTRIBUTES","count":18919}}},{"buffer":1,"byteOffset":151352,"byteLength":75676,"byteStride":4,"target":34962,"extensions":{"EXT_meshopt_compression":{"buffer":0,"byteOffset":49340,"byteLength":20683,"byteStride":4,"mode":"ATTRIBUTES","count":18919}}},{"buffer":1,"byteOffset":227028,"byteLength":89976,"target":34963,"extensions":{"EXT_meshopt_compression":{"buffer":0,"byteOffset":70024,"byteLength":17851,"byteStride":2,"mode":"TRIANGLES","count":44988}}},{"buffer":1,"byteOffset":317004,"byteLength":12608,"byteStride":4,"target":34962,"extensions":{"EXT_meshopt_compression":{"buffer":0,"byteOffset":87876,"byteLength":7367,"byteStride":4,"mode":"ATTRIBUTES","count":3152}}}],"accessors":[{"bufferView":0,"byteOffset":0,"componentType":5123,"count":151,"type":"VEC3","min":[445,14979,346],"max":[588,15107,539]},{"bufferView":1,"byteOffset":0,"componentType":5120,"count":151,"type":"VEC3","normalized":true},{"bufferView":2,"byteOffset":0,"componentType":5123,"count":246,"type":"SCALAR"},{"bufferView":0,"byteOffset":1208,"componentType":5123,"count":10,"type":"VEC3","min":[454,14979,433],"max":[579,15107,502]},{"bufferView":1,"byteOffset":604,"componentType":5120,"count":10,"type":"VEC3","normalized":true},{"bufferView":3,"byteOffset":0,"componentType":5123,"count":10,"type":"VEC2","normalized":true},{"bufferView":2,"byteOffset":492,"componentType":5123,"count":18,"type":"SCALAR"},{"bufferView":0,"byteOffset":1288,"componentType":5123,"count":2685,"type":"VEC3","min":[440,52,175],"max":[6372,15624,540]},{"bufferView":1,"byteOffset":644,"componentType":5120,"count":2685,"type":"VEC3","normalized":true},{"bufferView":2,"byteOffset":528,"componentType":5123,"count":5232,"type":"SCALAR"},{"bufferView":0,"byteOffset":22768,"componentType":5123,"count":151,"type":"VEC3","min":[90,17,348],"max":[6357,16366,348]},{"bufferView":1,"byteOffset":11384,"componentType":5120,"count":151,"type":"VEC3","normalized":true},{"bufferView":3,"byteOffset":40,"componentType":5123,"count":151,"type":"VEC2","normalized":true},{"bufferView":2,"byteOffset":10992,"componentType":5123,"count":507,"type":"SCALAR"},{"bufferView":0,"byteOffset":23976,"componentType":5123,"count":33,"type":"VEC3","min":[90,259,348],"max":[6357,16083,348]},{"bufferView":1,"byteOffset":11988,"componentType":5120,"count":33,"type":"VEC3","normalized":true},{"bufferView":3,"byteOffset":644,"componentType":5123,"count":33,"type":"VEC2","normalized":true},{"bufferView":2,"byteOffset":12006,"componentType":5123,"count":51,"type":"SCALAR"},{"bufferView":0,"byteOffset":24240,"componentType":5123,"count":9159,"type":"VEC3","min":[0,0,0],"max":[6446,16383,557]},{"bufferView":1,"byteOffset":12120,"componentType":5120,"count":9159,"type":"VEC3","normalized":true},{"bufferView":2,"byteOffset":12108,"componentType":5123,"count":25482,"type":"SCALAR"},{"bufferView":0,"byteOffset":97512,"componentType":5123,"count":544,"type":"VEC3","min":[738,1440,349],"max":[5707,15270,453]},{"bufferView":1,"byteOffset":48756,"componentType":5120,"count":544,"type":"VEC3","normalized":true},{"bufferView":2,"byteOffset":63072,"componentType":5123,"count":1104,"type":"SCALAR"},{"bufferView":0,"byteOffset":101864,"componentType":5123,"count":680,"type":"VEC3","min":[1267,289,347],"max":[5178,16082,446]},{"bufferView":1,"byteOffset":50932,"componentType":5120,"count":680,"type":"VEC3","normalized":true},{"bufferView":2,"byteOffset":65280,"componentType":5123,"count":1230,"type":"SCALAR"},{"bufferView":0,"byteOffset":107304,"componentType":5123,"count":226,"type":"VEC3","min":[73,1125,228],"max":[6374,15258,348]},{"bufferView":1,"byteOffset":53652,"componentType":5120,"count":226,"type":"VEC3","normalized":true},{"bufferView":3,"byteOffset":776,"componentType":5123,"count":226,"type":"VEC2","normalized":true},{"bufferView":2,"byteOffset":67740,"componentType":5123,"count":564,"type":"SCALAR"},{"bufferView":0,"byteOffset":109112,"componentType":5123,"count":986,"type":"VEC3","min":[1621,404,344],"max":[4810,3978,463]},{"bufferView":1,"byteOffset":54556,"componentType":5120,"count":986,"type":"VEC3","normalized":true},{"bufferView":3,"byteOffset":1680,"componentType":5123,"count":986,"type":"VEC2","normalized":true},{"bufferView":2,"byteOffset":68868,"componentType":5123,"count":1710,"type":"SCALAR"},{"bufferView":0,"byteOffset":117000,"componentType":5123,"count":1336,"type":"VEC3","min":[73,12,175],"max":[6367,16371,402]},{"bufferView":1,"byteOffset":58500,"componentType":5120,"count":1336,"type":"VEC3","normalized":true},{"bufferView":3,"byteOffset":5624,"componentType":5123,"count":1336,"type":"VEC2","normalized":true},{"bufferView":2,"byteOffset":72288,"componentType":5123,"count":2580,"type":"SCALAR"},{"bufferView":0,"byteOffset":127688,"componentType":5123,"count":410,"type":"VEC3","min":[138,4736,175],"max":[6309,11647,351]},{"bufferView":1,"byteOffset":63844,"componentType":5120,"count":410,"type":"VEC3","normalized":true},{"bufferView":3,"byteOffset":10968,"componentType":5123,"count":410,"type":"VEC2","normalized":true},{"bufferView":2,"byteOffset":77448,"componentType":5123,"count":816,"type":"SCALAR"},{"bufferView":0,"byteOffset":130968,"componentType":5123,"count":2548,"type":"VEC3","min":[265,4381,0],"max":[6183,12002,347]},{"bufferView":1,"byteOffset":65484,"componentType":5120,"count":2548,"type":"VEC3","normalized":true},{"bufferView":2,"byteOffset":79080,"componentType":5123,"count":5448,"type":"SCALAR"}],"samplers":[{"magFilter":9729,"minFilter":9987}],"images":[{"uri":"T_B_elevatorB_TempTest.png"},{"uri":"T_Marble02_N01.png"},{"uri":"T_Marble02_LightGrey_ThinGap3.jpg"},{"uri":"T_Marble02_R0.png"},{"uri":"T_Marble02_Blue_ThinGap.jpg"},{"uri":"T_AirHolesjpg.jpg"},{"uri":"T_WoodLight_2.jpg"},{"uri":"T_Handrail_trans.png"},{"uri":"T_Marble02_LightGrey_ThinGap.jpg"}],"textures":[{"sampler":0,"source":0},{"sampler":0,"source":1},{"sampler":0,"source":2},{"sampler":0,"source":3},{"sampler":0,"source":4},{"sampler":0,"source":5},{"sampler":0,"source":6},{"sampler":0,"source":7},{"sampler":0,"source":8}],"materials":[{"name":"M_Uni_Glass_trans","pbrMetallicRoughness":{"baseColorFactor":[0.37151286,0.424747467,0.532374084,0.5],"metallicFactor":0.200000003,"roughnessFactor":0},"alphaMode":"BLEND"},{"name":"Material #2147314663","pbrMetallicRoughness":{"baseColorTexture":{"index":0,"extensions":{"KHR_texture_transform":{"offset":[2.98023224e-08,0.181072235],"scale":[16.003664,8.97847652]}}},"metallicFactor":0},"doubleSided":true},{"name":"M_Uni_metalGrey","pbrMetallicRoughness":{"baseColorFactor":[0.302158266,0.302158266,0.302158266,1],"roughnessFactor":0.200000003},"doubleSided":true},{"name":"M_ComplexPattern_Tile_Main3","pbrMetallicRoughness":{"baseColorTexture":{"index":2,"extensions":{"KHR_texture_transform":{"offset":[-12.1050339,-84.303627],"scale":[403.453735,1052.50745]}}},"metallicFactor":0,"metallicRoughnessTexture":{"index":3,"extensions":{"KHR_texture_transform":{"offset":[-12.1050339,-84.303627],"scale":[403.453735,1052.50745]}}}},"normalTexture":{"index":1,"scale":0.699999988,"extensions":{"KHR_texture_transform":{"offset":[-12.1050339,-84.303627],"scale":[403.453735,1052.50745]}}},"doubleSided":true},{"name":"M_Uni_MarbleATiles_blue_Parking","pbrMetallicRoughness":{"baseColorTexture":{"index":4,"extensions":{"KHR_texture_transform":{"offset":[-12.1050215,-83.1648712],"scale":[403.453217,1018.70258]}}},"metallicFactor":0,"metallicRoughnessTexture":{"index":3,"extensions":{"KHR_texture_transform":{"offset":[-12.1050215,-83.1648712],"scale":[403.453217,1018.70258]}}}},"normalTexture":{"index":1,"scale":0.699999988,"extensions":{"KHR_texture_transform":{"offset":[-12.1050215,-83.1648712],"scale":[403.453217,1018.70258]}}},"doubleSided":true},{"name":"M_Uni_whiteWall","pbrMetallicRoughness":{"baseColorFactor":[0.935251832,0.935251832,0.935251832,1],"metallicFactor":0},"doubleSided":true},{"name":"M_Uni_Glass_Trans","pbrMetallicRoughness":{"baseColorFactor":[0.344702661,0.406809658,0.532374084,0.899999976],"metallicFactor":0.349999994,"roughnessFactor":0},"alphaMode":"BLEND"},{"name":"M_glass_shop","pbrMetallicRoughness":{"baseColorFactor":[0.276978433,0.5,0.427798778,0.5],"metallicFactor":0.300000012,"roughnessFactor":0},"alphaMode":"BLEND","doubleSided":true},{"name":"M_AirHoles","pbrMetallicRoughness":{"baseColorTexture":{"index":5,"extensions":{"KHR_texture_transform":{"offset":[-7.25762463,-7.94820976],"scale":[259.819305,259.352692]}}},"metallicFactor":0},"doubleSided":true},{"name":"M_Wood_Light1","pbrMetallicRoughness":{"baseColorTexture":{"index":6,"extensions":{"KHR_texture_transform":{"offset":[-3.53084898,-3.03034163],"scale":[129.016693,112.996788]}}},"metallicFactor":0},"doubleSided":true},{"name":"M_Uni_TransTex_Handrail","pbrMetallicRoughness":{"baseColorTexture":{"index":7,"extensions":{"KHR_texture_transform":{"offset":[-10.913497,-2.09858537],"scale":[815.013489,176.360962]}}},"roughnessFactor":0.400000006},"alphaMode":"MASK","doubleSided":true},{"name":"M_ComplexPattern_Tile_Main","pbrMetallicRoughness":{"baseColorTexture":{"index":8,"extensions":{"KHR_texture_transform":{"offset":[-0.0455918908,-0.0455931425],"scale":[17.4629383,17.4629784]}}},"metallicFactor":0,"metallicRoughnessTexture":{"index":3,"extensions":{"KHR_texture_transform":{"offset":[-0.0455918908,-0.0455931425],"scale":[17.4629383,17.4629784]}}}},"normalTexture":{"index":1,"scale":0.699999988,"extensions":{"KHR_texture_transform":{"offset":[-0.0455918908,-0.0455931425],"scale":[17.4629383,17.4629784]}}},"doubleSided":true},{"name":"M_Uni_wall_grey","pbrMetallicRoughness":{"baseColorFactor":[0.517985642,0.517985642,0.517985642,1],"metallicFactor":0},"doubleSided":true}],"meshes":[{"primitives":[{"attributes":{"POSITION":0,"NORMAL":1},"indices":2,"material":0},{"attributes":{"POSITION":3,"NORMAL":4,"TEXCOORD_0":5},"indices":6,"material":1},{"attributes":{"POSITION":7,"NORMAL":8},"indices":9,"material":2},{"attributes":{"POSITION":10,"NORMAL":11,"TEXCOORD_0":12},"indices":13,"material":3},{"attributes":{"POSITION":14,"NORMAL":15,"TEXCOORD_0":16},"indices":17,"material":4},{"attributes":{"POSITION":18,"NORMAL":19},"indices":20,"material":5},{"attributes":{"POSITION":21,"NORMAL":22},"indices":23,"material":6},{"attributes":{"POSITION":24,"NORMAL":25},"indices":26,"material":7},{"attributes":{"POSITION":27,"NORMAL":28,"TEXCOORD_0":29},"indices":30,"material":8},{"attributes":{"POSITION":31,"NORMAL":32,"TEXCOORD_0":33},"indices":34,"material":9},{"attributes":{"POSITION":35,"NORMAL":36,"TEXCOORD_0":37},"indices":38,"material":10},{"attributes":{"POSITION":39,"NORMAL":40,"TEXCOORD_0":41},"indices":42,"material":11},{"attributes":{"POSITION":43,"NORMAL":44},"indices":45,"material":12}]}],"nodes":[{"mesh":0,"translation":[-26.8627777,-66.6067963,19.3283997],"scale":[0.0241347756,0.0241347756,0.0241347756]}],"scenes":[{"nodes":[0]}],"scene":0}