{"asset":{"version":"2.0","generator":"babylon.js glTF exporter for 3dsmax 2020 v20220628.14"},"scene":0,"scenes":[{"nodes":[0,1,2,3,4,5,6]}],"nodes":[{"mesh":0,"translation":[-14.4512482,296.316345,29.8565216],"rotation":[0.7071066,-2.472688E-07,-6.743496E-07,0.707106948],"name":"SM_3F_Elevator_West","extras":{"paramrenderwidth":2048,"paramrenderheight":2048,"paramfacecolor":[0.7058824,0.20784314,0.09019608],"paramedgecolor":[1.0,0.7764706,0.0],"paramedgewidth":1}},{"mesh":1,"translation":[50.93714,-9.254669,23.0262146],"rotation":[0.7071068,0.0,0.0,0.7071067],"name":"SM_3F_MainFloor"},{"mesh":2,"translation":[50.9188156,130.882751,27.6914],"rotation":[0.7071068,0.0,0.0,0.7071067],"name":"SM_3F_ShopBuildings"},{"mesh":3,"translation":[50.93715,131.093231,24.824007],"rotation":[0.7071068,0.0,0.0,0.7071067],"name":"SM_3F_Platform_Side"},{"mesh":4,"translation":[15.24099,-26.8237457,28.3434448],"rotation":[0.7071068,0.0,0.0,0.7071067],"name":"SM_3F_SubBuil"},{"mesh":5,"translation":[50.9143677,131.093231,23.54463],"rotation":[0.7071068,0.0,0.0,0.7071067],"name":"SM_3F_FenceTrans"},{"mesh":6,"translation":[50.93714,131.093231,19.3284073],"rotation":[0.7071068,0.0,0.0,0.7071067],"name":"SM_3F_BuiMisc"}],"meshes":[{"primitives":[{"attributes":{"POSITION":1,"NORMAL":2,"TEXCOORD_0":3},"indices":0,"material":0},{"attributes":{"POSITION":5,"NORMAL":6,"TEXCOORD_0":7},"indices":4,"material":1},{"attributes":{"POSITION":9,"NORMAL":10,"TEXCOORD_0":11},"indices":8,"material":2}],"name":"SM_3F_Elevator_West"},{"primitives":[{"attributes":{"POSITION":13,"NORMAL":14,"COLOR_0":15,"TEXCOORD_0":16,"TEXCOORD_1":17},"indices":12,"material":3},{"attributes":{"POSITION":19,"NORMAL":20,"COLOR_0":21,"TEXCOORD_0":22,"TEXCOORD_1":23},"indices":18,"material":4},{"attributes":{"POSITION":25,"NORMAL":26,"COLOR_0":27,"TEXCOORD_0":28,"TEXCOORD_1":29},"indices":24,"material":5}],"name":"SM_3F_MainFloor"},{"primitives":[{"attributes":{"POSITION":31,"NORMAL":32,"COLOR_0":33,"TEXCOORD_0":34,"TEXCOORD_1":35},"indices":30,"material":6},{"attributes":{"POSITION":37,"NORMAL":38,"COLOR_0":39,"TEXCOORD_0":40,"TEXCOORD_1":41},"indices":36,"material":7},{"attributes":{"POSITION":43,"NORMAL":44,"COLOR_0":45,"TEXCOORD_0":46,"TEXCOORD_1":47},"indices":42,"material":2},{"attributes":{"POSITION":49,"NORMAL":50,"COLOR_0":51,"TEXCOORD_0":52,"TEXCOORD_1":53},"indices":48,"material":8}],"name":"SM_3F_ShopBuildings"},{"primitives":[{"attributes":{"POSITION":55,"NORMAL":56,"COLOR_0":57,"TEXCOORD_0":58,"TEXCOORD_1":59},"indices":54,"material":9}],"name":"SM_3F_Platform_Side"},{"primitives":[{"attributes":{"POSITION":61,"NORMAL":62,"COLOR_0":63,"TEXCOORD_0":64,"TEXCOORD_1":65},"indices":60,"material":6},{"attributes":{"POSITION":67,"NORMAL":68,"COLOR_0":69,"TEXCOORD_0":70,"TEXCOORD_1":71},"indices":66,"material":10},{"attributes":{"POSITION":73,"NORMAL":74,"COLOR_0":75,"TEXCOORD_0":76,"TEXCOORD_1":77},"indices":72,"material":6},{"attributes":{"POSITION":79,"NORMAL":80,"COLOR_0":81,"TEXCOORD_0":82,"TEXCOORD_1":83},"indices":78,"material":8}],"name":"SM_3F_SubBuil"},{"primitives":[{"attributes":{"POSITION":85,"NORMAL":86,"COLOR_0":87,"TEXCOORD_0":88,"TEXCOORD_1":89},"indices":84,"material":2},{"attributes":{"POSITION":91,"NORMAL":92,"COLOR_0":93,"TEXCOORD_0":94,"TEXCOORD_1":95},"indices":90,"material":11}],"name":"SM_3F_FenceTrans"},{"primitives":[{"attributes":{"POSITION":97,"NORMAL":98,"COLOR_0":99,"TEXCOORD_0":100,"TEXCOORD_1":101},"indices":96,"material":6},{"attributes":{"POSITION":103,"NORMAL":104,"COLOR_0":105,"TEXCOORD_0":106,"TEXCOORD_1":107},"indices":102,"material":12},{"attributes":{"POSITION":109,"NORMAL":110,"COLOR_0":111,"TEXCOORD_0":112,"TEXCOORD_1":113},"indices":108,"material":13}],"name":"SM_3F_BuiMisc"}],"accessors":[{"bufferView":0,"componentType":5123,"count":246,"type":"SCALAR","name":"accessorIndices"},{"bufferView":1,"componentType":5126,"count":167,"max":[1.77074122,2.47968984,1.40819454],"min":[-1.661447,-2.182557,-1.68130434],"type":"VEC3","name":"accessorPositions"},{"bufferView":1,"byteOffset":2004,"componentType":5126,"count":167,"type":"VEC3","name":"accessorNormals"},{"bufferView":2,"componentType":5126,"count":167,"type":"VEC2","name":"accessorUVs"},{"bufferView":0,"byteOffset":492,"componentType":5123,"count":18,"type":"SCALAR","name":"accessorIndices"},{"bufferView":1,"byteOffset":4008,"componentType":5126,"count":10,"max":[1.57127881,1.59121156,1.40819323],"min":[-1.46347511,-0.0671994,-1.6812979],"type":"VEC3","name":"accessorPositions"},{"bufferView":1,"byteOffset":4128,"componentType":5126,"count":10,"type":"VEC3","name":"accessorNormals"},{"bufferView":2,"byteOffset":1336,"componentType":5126,"count":10,"type":"VEC2","name":"accessorUVs"},{"bufferView":0,"byteOffset":528,"componentType":5123,"count":672,"type":"SCALAR","name":"accessorIndices"},{"bufferView":1,"byteOffset":4248,"componentType":5126,"count":445,"max":[1.89297712,2.50221419,1.49079108],"min":[-1.78461957,-3.57988262,-1.76137447],"type":"VEC3","name":"accessorPositions"},{"bufferView":1,"byteOffset":9588,"componentType":5126,"count":445,"type":"VEC3","name":"accessorNormals"},{"bufferView":2,"byteOffset":1416,"componentType":5126,"count":445,"type":"VEC2","name":"accessorUVs"},{"bufferView":0,"byteOffset":1872,"componentType":5123,"count":507,"type":"SCALAR","name":"accessorIndices"},{"bufferView":1,"byteOffset":14928,"componentType":5126,"count":179,"max":[75.6302261,4.69785643,56.9520874],"min":[-75.63023,4.697748,-337.6479],"type":"VEC3","name":"accessorPositions"},{"bufferView":1,"byteOffset":17076,"componentType":5126,"count":179,"type":"VEC3","name":"accessorNormals"},{"bufferView":3,"componentType":5126,"count":179,"type":"VEC4","name":"accessorColors"},{"bufferView":2,"byteOffset":4976,"componentType":5126,"count":179,"type":"VEC2","name":"accessorUVs"},{"bufferView":2,"byteOffset":6408,"componentType":5126,"count":179,"type":"VEC2","name":"accessorUV2s"},{"bufferView":0,"byteOffset":2888,"componentType":5123,"count":51,"type":"SCALAR","name":"accessorIndices"},{"bufferView":1,"byteOffset":19224,"componentType":5126,"count":178,"max":[75.6302261,4.69785643,56.9520874],"min":[-75.63023,4.697748,-337.6479],"type":"VEC3","name":"accessorPositions"},{"bufferView":1,"byteOffset":21360,"componentType":5126,"count":178,"type":"VEC3","name":"accessorNormals"},{"bufferView":3,"byteOffset":2864,"componentType":5126,"count":178,"type":"VEC4","name":"accessorColors"},{"bufferView":2,"byteOffset":7840,"componentType":5126,"count":178,"type":"VEC2","name":"accessorUVs"},{"bufferView":2,"byteOffset":9264,"componentType":5126,"count":178,"type":"VEC2","name":"accessorUV2s"},{"bufferView":0,"byteOffset":2992,"componentType":5123,"count":1326,"type":"SCALAR","name":"accessorIndices"},{"bufferView":1,"byteOffset":23496,"componentType":5126,"count":547,"max":[75.6302261,4.69785643,56.9520874],"min":[-75.63023,2.69774842,-337.6479],"type":"VEC3","name":"accessorPositions"},{"bufferView":1,"byteOffset":30060,"componentType":5126,"count":547,"type":"VEC3","name":"accessorNormals"},{"bufferView":3,"byteOffset":5712,"componentType":5126,"count":547,"type":"VEC4","name":"accessorColors"},{"bufferView":2,"byteOffset":10688,"componentType":5126,"count":547,"type":"VEC2","name":"accessorUVs"},{"bufferView":2,"byteOffset":15064,"componentType":5126,"count":547,"type":"VEC2","name":"accessorUV2s"},{"bufferView":0,"byteOffset":5644,"componentType":5123,"count":20166,"type":"SCALAR","name":"accessorIndices"},{"bufferView":1,"byteOffset":36624,"componentType":5126,"count":8167,"max":[77.7815857,5.08110571,197.489563],"min":[-77.78159,-1.06811524E-06,-197.5164],"type":"VEC3","name":"accessorPositions"},{"bufferView":1,"byteOffset":134628,"componentType":5126,"count":8167,"type":"VEC3","name":"accessorNormals"},{"bufferView":3,"byteOffset":14464,"componentType":5126,"count":8167,"type":"VEC4","name":"accessorColors"},{"bufferView":2,"byteOffset":19440,"componentType":5126,"count":8167,"type":"VEC2","name":"accessorUVs"},{"bufferView":2,"byteOffset":84776,"componentType":5126,"count":8167,"type":"VEC2","name":"accessorUV2s"},{"bufferView":0,"byteOffset":45976,"componentType":5123,"count":1104,"type":"SCALAR","name":"accessorIndices"},{"bufferView":1,"byteOffset":232632,"componentType":5126,"count":544,"max":[59.964016,2.57628727,162.7236],"min":[-59.9734154,0.0618566871,-171.0556],"type":"VEC3","name":"accessorPositions"},{"bufferView":1,"byteOffset":239160,"componentType":5126,"count":544,"type":"VEC3","name":"accessorNormals"},{"bufferView":3,"byteOffset":145136,"componentType":5126,"count":544,"type":"VEC4","name":"accessorColors"},{"bufferView":2,"byteOffset":150112,"componentType":5126,"count":544,"type":"VEC2","name":"accessorUVs"},{"bufferView":2,"byteOffset":154464,"componentType":5126,"count":544,"type":"VEC2","name":"accessorUV2s"},{"bufferView":0,"byteOffset":48184,"componentType":5123,"count":3120,"type":"SCALAR","name":"accessorIndices"},{"bufferView":1,"byteOffset":245688,"componentType":5126,"count":1280,"max":[60.0253067,1.88060069,162.7415],"min":[-60.0347061,0.000564727758,-171.091934],"type":"VEC3","name":"accessorPositions"},{"bufferView":1,"byteOffset":261048,"componentType":5126,"count":1280,"type":"VEC3","name":"accessorNormals"},{"bufferView":3,"byteOffset":153840,"componentType":5126,"count":1280,"type":"VEC4","name":"accessorColors"},{"bufferView":2,"byteOffset":158816,"componentType":5126,"count":1280,"type":"VEC2","name":"accessorUVs"},{"bufferView":2,"byteOffset":169056,"componentType":5126,"count":1280,"type":"VEC2","name":"accessorUV2s"},{"bufferView":0,"byteOffset":54424,"componentType":5123,"count":660,"type":"SCALAR","name":"accessorIndices"},{"bufferView":1,"byteOffset":276408,"componentType":5126,"count":440,"max":[47.1934128,2.282711,190.51387],"min":[-47.202816,0.000870971649,-190.652267],"type":"VEC3","name":"accessorPositions"},{"bufferView":1,"byteOffset":281688,"componentType":5126,"count":440,"type":"VEC3","name":"accessorNormals"},{"bufferView":3,"byteOffset":174320,"componentType":5126,"count":440,"type":"VEC4","name":"accessorColors"},{"bufferView":2,"byteOffset":179296,"componentType":5126,"count":440,"type":"VEC2","name":"accessorUVs"},{"bufferView":2,"byteOffset":182816,"componentType":5126,"count":440,"type":"VEC2","name":"accessorUV2s"},{"bufferView":0,"byteOffset":55744,"componentType":5123,"count":564,"type":"SCALAR","name":"accessorIndices"},{"bufferView":1,"byteOffset":286968,"componentType":5126,"count":238,"max":[76.0302353,2.900078,170.54303],"min":[-76.0302353,1.2207031E-06,-170.543],"type":"VEC3","name":"accessorPositions"},{"bufferView":1,"byteOffset":289824,"componentType":5126,"count":238,"type":"VEC3","name":"accessorNormals"},{"bufferView":3,"byteOffset":181360,"componentType":5126,"count":238,"type":"VEC4","name":"accessorColors"},{"bufferView":2,"byteOffset":186336,"componentType":5126,"count":238,"type":"VEC2","name":"accessorUVs"},{"bufferView":2,"byteOffset":188240,"componentType":5126,"count":238,"type":"VEC2","name":"accessorUV2s"},{"bufferView":0,"byteOffset":56872,"componentType":5123,"count":348,"type":"SCALAR","name":"accessorIndices"},{"bufferView":1,"byteOffset":292680,"componentType":5126,"count":192,"max":[49.2984962,4.12290239,17.4489231],"min":[22.0937176,-0.6526718,11.9677782],"type":"VEC3","name":"accessorPositions"},{"bufferView":1,"byteOffset":294984,"componentType":5126,"count":192,"type":"VEC3","name":"accessorNormals"},{"bufferView":3,"byteOffset":185168,"componentType":5126,"count":192,"type":"VEC4","name":"accessorColors"},{"bufferView":2,"byteOffset":190144,"componentType":5126,"count":192,"type":"VEC2","name":"accessorUVs"},{"bufferView":2,"byteOffset":191680,"componentType":5126,"count":192,"type":"VEC2","name":"accessorUV2s"},{"bufferView":0,"byteOffset":57568,"componentType":5123,"count":1710,"type":"SCALAR","name":"accessorIndices"},{"bufferView":1,"byteOffset":297288,"componentType":5126,"count":1010,"max":[73.98394,2.148009,30.0426865],"min":[-2.97905016,-0.7209195,-56.2254],"type":"VEC3","name":"accessorPositions"},{"bufferView":1,"byteOffset":309408,"componentType":5126,"count":1010,"type":"VEC3","name":"accessorNormals"},{"bufferView":3,"byteOffset":188240,"componentType":5126,"count":1010,"type":"VEC4","name":"accessorColors"},{"bufferView":2,"byteOffset":193216,"componentType":5126,"count":1010,"type":"VEC2","name":"accessorUVs"},{"bufferView":2,"byteOffset":201296,"componentType":5126,"count":1010,"type":"VEC2","name":"accessorUV2s"},{"bufferView":0,"byteOffset":60988,"componentType":5123,"count":2910,"type":"SCALAR","name":"accessorIndices"},{"bufferView":1,"byteOffset":321528,"componentType":5126,"count":1220,"max":[60.3087959,1.96644711,30.3350525],"min":[9.720547,-0.653562,24.0239258],"type":"VEC3","name":"accessorPositions"},{"bufferView":1,"byteOffset":336168,"componentType":5126,"count":1220,"type":"VEC3","name":"accessorNormals"},{"bufferView":3,"byteOffset":204400,"componentType":5126,"count":1220,"type":"VEC4","name":"accessorColors"},{"bufferView":2,"byteOffset":209376,"componentType":5126,"count":1220,"type":"VEC2","name":"accessorUVs"},{"bufferView":2,"byteOffset":219136,"componentType":5126,"count":1220,"type":"VEC2","name":"accessorUV2s"},{"bufferView":0,"byteOffset":66808,"componentType":5123,"count":570,"type":"SCALAR","name":"accessorIndices"},{"bufferView":1,"byteOffset":350808,"componentType":5126,"count":250,"max":[73.7193146,1.74644685,29.85434],"min":[-2.73419428,-0.59356153,24.2074223],"type":"VEC3","name":"accessorPositions"},{"bufferView":1,"byteOffset":353808,"componentType":5126,"count":250,"type":"VEC3","name":"accessorNormals"},{"bufferView":3,"byteOffset":223920,"componentType":5126,"count":250,"type":"VEC4","name":"accessorColors"},{"bufferView":2,"byteOffset":228896,"componentType":5126,"count":250,"type":"VEC2","name":"accessorUVs"},{"bufferView":2,"byteOffset":230896,"componentType":5126,"count":250,"type":"VEC2","name":"accessorUV2s"},{"bufferView":0,"byteOffset":67948,"componentType":5123,"count":1440,"type":"SCALAR","name":"accessorIndices"},{"bufferView":1,"byteOffset":356808,"componentType":5126,"count":960,"max":[76.00745,5.507205,196.444336],"min":[-63.6720428,1.2207031E-06,-179.384872],"type":"VEC3","name":"accessorPositions"},{"bufferView":1,"byteOffset":368328,"componentType":5126,"count":960,"type":"VEC3","name":"accessorNormals"},{"bufferView":3,"byteOffset":227920,"componentType":5126,"count":960,"type":"VEC4","name":"accessorColors"},{"bufferView":2,"byteOffset":232896,"componentType":5126,"count":960,"type":"VEC2","name":"accessorUVs"},{"bufferView":2,"byteOffset":240576,"componentType":5126,"count":960,"type":"VEC2","name":"accessorUV2s"},{"bufferView":0,"byteOffset":70828,"componentType":5123,"count":2580,"type":"SCALAR","name":"accessorIndices"},{"bufferView":1,"byteOffset":379848,"componentType":5126,"count":1336,"max":[75.89974,5.47942972,197.418549],"min":[-76.00745,0.0,-197.418549],"type":"VEC3","name":"accessorPositions"},{"bufferView":1,"byteOffset":395880,"componentType":5126,"count":1336,"type":"VEC3","name":"accessorNormals"},{"bufferView":3,"byteOffset":243280,"componentType":5126,"count":1336,"type":"VEC4","name":"accessorColors"},{"bufferView":2,"byteOffset":248256,"componentType":5126,"count":1336,"type":"VEC2","name":"accessorUVs"},{"bufferView":2,"byteOffset":258944,"componentType":5126,"count":1336,"type":"VEC2","name":"accessorUV2s"},{"bufferView":0,"byteOffset":75988,"componentType":5123,"count":732,"type":"SCALAR","name":"accessorIndices"},{"bufferView":1,"byteOffset":411912,"componentType":5126,"count":380,"max":[76.03024,8.476167,197.699982],"min":[-76.0302353,3.90625E-05,-197.699982],"type":"VEC3","name":"accessorPositions"},{"bufferView":1,"byteOffset":416472,"componentType":5126,"count":380,"type":"VEC3","name":"accessorNormals"},{"bufferView":3,"byteOffset":264656,"componentType":5126,"count":380,"type":"VEC4","name":"accessorColors"},{"bufferView":2,"byteOffset":269632,"componentType":5126,"count":380,"type":"VEC2","name":"accessorUVs"},{"bufferView":2,"byteOffset":272672,"componentType":5126,"count":380,"type":"VEC2","name":"accessorUV2s"},{"bufferView":0,"byteOffset":77452,"componentType":5123,"count":816,"type":"SCALAR","name":"accessorIndices"},{"bufferView":1,"byteOffset":421032,"componentType":5126,"count":410,"max":[74.47058,8.476167,83.39586],"min":[-74.4706,4.230513,-83.3958359],"type":"VEC3","name":"accessorPositions"},{"bufferView":1,"byteOffset":425952,"componentType":5126,"count":410,"type":"VEC3","name":"accessorNormals"},{"bufferView":3,"byteOffset":270736,"componentType":5126,"count":410,"type":"VEC4","name":"accessorColors"},{"bufferView":2,"byteOffset":275712,"componentType":5126,"count":410,"type":"VEC2","name":"accessorUVs"},{"bufferView":2,"byteOffset":278992,"componentType":5126,"count":410,"type":"VEC2","name":"accessorUV2s"},{"bufferView":0,"byteOffset":79084,"componentType":5123,"count":5448,"type":"SCALAR","name":"accessorIndices"},{"bufferView":1,"byteOffset":430872,"componentType":5126,"count":2590,"max":[71.4143448,8.362957,91.967514],"min":[-71.41447,-6.10351549E-07,-91.967514],"type":"VEC3","name":"accessorPositions"},{"bufferView":1,"byteOffset":461952,"componentType":5126,"count":2590,"type":"VEC3","name":"accessorNormals"},{"bufferView":3,"byteOffset":277296,"componentType":5126,"count":2590,"type":"VEC4","name":"accessorColors"},{"bufferView":2,"byteOffset":282272,"componentType":5126,"count":2590,"type":"VEC2","name":"accessorUVs"},{"bufferView":2,"byteOffset":302992,"componentType":5126,"count":2590,"type":"VEC2","name":"accessorUV2s"}],"bufferViews":[{"buffer":0,"byteLength":89980,"name":"bufferViewScalar"},{"buffer":0,"byteOffset":89980,"byteLength":493032,"byteStride":12,"name":"bufferViewFloatVec3"},{"buffer":0,"byteOffset":583012,"byteLength":323712,"byteStride":8,"name":"bufferViewFloatVec2"},{"buffer":0,"byteOffset":906724,"byteLength":318736,"byteStride":16,"name":"bufferViewFloatVec4"}],"buffers":[{"uri":"6_3F_DepartUp.bin","byteLength":1225460}],"materials":[{"pbrMetallicRoughness":{"baseColorFactor":[0.37151286,0.424747467,0.5323741,0.5],"metallicFactor":0.2,"roughnessFactor":0.0},"alphaMode":"BLEND","name":"M_Uni_Glass_trans"},{"pbrMetallicRoughness":{"baseColorTexture":{"index":0},"metallicFactor":0.0},"doubleSided":true,"name":"Material #2147314663"},{"pbrMetallicRoughness":{"baseColorFactor":[0.302158266,0.302158266,0.302158266,1.0],"roughnessFactor":0.2},"doubleSided":true,"name":"M_Uni_metalGrey"},{"pbrMetallicRoughness":{"baseColorTexture":{"index":2},"metallicFactor":0.0,"metallicRoughnessTexture":{"index":3}},"normalTexture":{"index":1,"scale":0.7},"doubleSided":true,"name":"M_ComplexPattern_Tile_Main3"},{"pbrMetallicRoughness":{"baseColorTexture":{"index":4},"metallicFactor":0.0,"metallicRoughnessTexture":{"index":3}},"normalTexture":{"index":1,"scale":0.7},"doubleSided":true,"name":"M_Uni_MarbleATiles_blue_Parking"},{"pbrMetallicRoughness":{"baseColorFactor":[0.935251832,0.935251832,0.935251832,1.0],"metallicFactor":0.0},"doubleSided":true,"name":"M_Uni_whiteWall","extras":{"babylonSeparateCullingPass":false}},{"pbrMetallicRoughness":{"baseColorFactor":[0.935251832,0.935251832,0.935251832,1.0],"metallicFactor":0.0},"doubleSided":true,"name":"M_Uni_whiteWall","extras":{"babylonSeparateCullingPass":false}},{"pbrMetallicRoughness":{"baseColorFactor":[0.344702661,0.406809658,0.5323741,0.9],"metallicFactor":0.35,"roughnessFactor":0.0},"alphaMode":"BLEND","name":"M_Uni_Glass_Trans"},{"pbrMetallicRoughness":{"baseColorFactor":[0.276978433,0.5,0.427798778,0.5],"metallicFactor":0.3,"roughnessFactor":0.0},"alphaMode":"BLEND","doubleSided":true,"name":"M_glass_shop"},{"pbrMetallicRoughness":{"baseColorTexture":{"index":5},"metallicFactor":0.0},"doubleSided":true,"name":"M_AirHoles","extras":{"babylonSeparateCullingPass":false}},{"pbrMetallicRoughness":{"baseColorTexture":{"index":6},"metallicFactor":0.0},"doubleSided":true,"name":"M_Wood_Light1"},{"pbrMetallicRoughness":{"baseColorTexture":{"index":7},"roughnessFactor":0.4},"alphaMode":"MASK","doubleSided":true,"name":"M_Uni_TransTex_Handrail"},{"pbrMetallicRoughness":{"baseColorTexture":{"index":8},"metallicFactor":0.0,"metallicRoughnessTexture":{"index":3}},"normalTexture":{"index":1,"scale":0.7},"doubleSided":true,"name":"M_ComplexPattern_Tile_Main"},{"pbrMetallicRoughness":{"baseColorFactor":[0.517985642,0.517985642,0.517985642,1.0],"metallicFactor":0.0},"doubleSided":true,"name":"M_Uni_wall_grey","extras":{"babylonSeparateCullingPass":false}}],"textures":[{"sampler":0,"source":0,"name":"T_B_elevatorB_TempTest.png"},{"sampler":0,"source":1,"name":"T_Marble02_N01.png"},{"sampler":0,"source":2,"name":"T_Marble02_LightGrey_ThinGap3.jpg"},{"sampler":0,"source":3,"name":"T_Marble02_R0.png"},{"sampler":0,"source":4,"name":"T_Marble02_Blue_ThinGap.jpg"},{"sampler":0,"source":5,"name":"T_AirHolesjpg.jpg"},{"sampler":0,"source":6,"name":"T_WoodLight_2.jpg"},{"sampler":0,"source":7,"name":"T_Handrail_trans.png"},{"sampler":0,"source":8,"name":"T_Marble02_LightGrey_ThinGap.jpg"}],"images":[{"uri":"T_B_elevatorB_TempTest.png"},{"uri":"T_Marble02_N01.png"},{"uri":"T_Marble02_LightGrey_ThinGap3.jpg"},{"uri":"T_Marble02_R0.png"},{"uri":"T_Marble02_Blue_ThinGap.jpg"},{"uri":"T_AirHolesjpg.jpg"},{"uri":"T_WoodLight_2.jpg"},{"uri":"T_Handrail_trans.png"},{"uri":"T_Marble02_LightGrey_ThinGap.jpg"}],"samplers":[{"magFilter":9729,"minFilter":9987}]}