{"asset":{"version":"2.0","generator":"babylon.js glTF exporter for 3dsmax 2020 v20220628.14"},"extensionsUsed":["KHR_texture_transform"],"extensionsRequired":["KHR_texture_transform"],"scene":0,"scenes":[{"nodes":[0,1,2,3,4,5,6,7]}],"nodes":[{"mesh":0,"translation":[47.287468,129.838013,22.565527],"rotation":[0.7071068,0.0,0.0,0.7071067],"name":"SM_HugeRoof_MainPillar"},{"mesh":1,"translation":[46.9684677,82.01592,39.65343],"rotation":[0.7071068,0.0,0.0,0.7071067],"name":"SM_HugeRoof_MainCenter"},{"mesh":2,"translation":[47.6802826,125.381317,38.68666],"rotation":[0.7071068,0.0,0.0,0.7071067],"name":"SM_HugeRoof_MidUnderpart"},{"mesh":3,"translation":[46.9684677,104.661018,39.65343],"rotation":[0.7071068,0.0,0.0,0.7071067],"name":"SM_HugeRoof_MianGlass"},{"mesh":4,"translation":[160.331039,4.38816833,33.50209],"rotation":[4.74853522E-07,0.7071067,0.7071068,5.366708E-07],"name":"SM_HugeRoof_MainInnerHoles","extras":{"paramrenderwidth":2048,"paramrenderheight":2048,"paramfacecolor":[0.7058824,0.20784314,0.09019608],"paramedgecolor":[1.0,0.7764706,0.0],"paramedgewidth":1}},{"mesh":5,"translation":[46.9684677,104.661011,27.0080566],"rotation":[0.7071068,0.0,0.0,0.7071067],"name":"SM_HugeRoof_MainSide"},{"mesh":6,"translation":[-143.148926,151.6196,4.860304],"rotation":[0.7071068,0.0,0.0,0.7071067],"name":"SM_HugeRoof_SideShelterNorth"},{"mesh":7,"translation":[-143.148926,151.6196,4.860304],"rotation":[0.7071068,0.0,0.0,0.7071067],"name":"SM_HugeRoof_SideShelterSouth"}],"meshes":[{"primitives":[{"attributes":{"POSITION":1,"NORMAL":2,"TEXCOORD_0":3},"indices":0,"material":0}],"name":"SM_HugeRoof_MainPillar"},{"primitives":[{"attributes":{"POSITION":5,"NORMAL":6,"TEXCOORD_0":7,"TEXCOORD_1":8},"indices":4,"material":0}],"name":"SM_HugeRoof_MainCenter"},{"primitives":[{"attributes":{"POSITION":10,"NORMAL":11,"TEXCOORD_0":12},"indices":9,"material":0}],"name":"SM_HugeRoof_MidUnderpart"},{"primitives":[{"attributes":{"POSITION":14,"NORMAL":15,"TEXCOORD_0":16,"TEXCOORD_1":17},"indices":13,"material":1}],"name":"SM_HugeRoof_MianGlass"},{"primitives":[{"attributes":{"POSITION":19,"NORMAL":20,"TEXCOORD_0":21,"TEXCOORD_1":22},"indices":18,"material":2}],"name":"SM_HugeRoof_MainInnerHoles"},{"primitives":[{"attributes":{"POSITION":24,"NORMAL":25,"TEXCOORD_0":26},"indices":23,"material":3},{"attributes":{"POSITION":28,"NORMAL":29,"TEXCOORD_0":30},"indices":27,"material":4},{"attributes":{"POSITION":32,"NORMAL":33,"TEXCOORD_0":34},"indices":31,"material":0}],"name":"SM_HugeRoof_MainSide"},{"primitives":[{"attributes":{"POSITION":36,"NORMAL":37,"TEXCOORD_0":38},"indices":35,"material":0},{"attributes":{"POSITION":40,"NORMAL":41,"TEXCOORD_0":42},"indices":39,"material":1}],"name":"SM_HugeRoof_SideShelterNorth"},{"primitives":[{"attributes":{"POSITION":44,"NORMAL":45,"TEXCOORD_0":46},"indices":43,"material":5},{"attributes":{"POSITION":48,"NORMAL":49,"TEXCOORD_0":50},"indices":47,"material":1}],"name":"SM_HugeRoof_SideShelterSouth"}],"accessors":[{"bufferView":0,"componentType":5123,"count":28626,"type":"SCALAR","name":"accessorIndices"},{"bufferView":1,"componentType":5126,"count":7389,"max":[141.868164,18.5745144,253.574234],"min":[-141.868149,-18.5745144,-253.574234],"type":"VEC3","name":"accessorPositions"},{"bufferView":1,"byteOffset":88668,"componentType":5126,"count":7389,"type":"VEC3","name":"accessorNormals"},{"bufferView":2,"componentType":5126,"count":7389,"type":"VEC2","name":"accessorUVs"},{"bufferView":0,"byteOffset":57252,"componentType":5123,"count":17616,"type":"SCALAR","name":"accessorIndices"},{"bufferView":1,"byteOffset":177336,"componentType":5126,"count":6578,"max":[81.0799561,7.05340528,151.003387],"min":[-81.0799561,1.52556884,-196.293579],"type":"VEC3","name":"accessorPositions"},{"bufferView":1,"byteOffset":256272,"componentType":5126,"count":6578,"type":"VEC3","name":"accessorNormals"},{"bufferView":2,"byteOffset":59112,"componentType":5126,"count":6578,"type":"VEC2","name":"accessorUVs"},{"bufferView":2,"byteOffset":111736,"componentType":5126,"count":6578,"type":"VEC2","name":"accessorUV2s"},{"bufferView":0,"byteOffset":92484,"componentType":5123,"count":7656,"type":"SCALAR","name":"accessorIndices"},{"bufferView":1,"byteOffset":335208,"componentType":5126,"count":2220,"max":[84.22946,5.30033,194.510559],"min":[-84.22946,-0.3076043,-210.480408],"type":"VEC3","name":"accessorPositions"},{"bufferView":1,"byteOffset":361848,"componentType":5126,"count":2220,"type":"VEC3","name":"accessorNormals"},{"bufferView":2,"byteOffset":164360,"componentType":5126,"count":2220,"type":"VEC2","name":"accessorUVs"},{"bufferView":0,"byteOffset":107796,"componentType":5123,"count":312,"type":"SCALAR","name":"accessorIndices"},{"bufferView":1,"byteOffset":388488,"componentType":5126,"count":102,"max":[81.0802841,5.88093138,173.6486],"min":[-81.0802841,9.01520252E-07,-173.6486],"type":"VEC3","name":"accessorPositions"},{"bufferView":1,"byteOffset":389712,"componentType":5126,"count":102,"type":"VEC3","name":"accessorNormals"},{"bufferView":2,"byteOffset":182120,"componentType":5126,"count":102,"type":"VEC2","name":"accessorUVs"},{"bufferView":2,"byteOffset":182936,"componentType":5126,"count":102,"type":"VEC2","name":"accessorUV2s"},{"bufferView":0,"byteOffset":108420,"componentType":5123,"count":1260,"type":"SCALAR","name":"accessorIndices"},{"bufferView":1,"byteOffset":390936,"componentType":5126,"count":476,"max":[248.375122,4.2966547,331.512665],"min":[-21.650032,-5.7848177,-68.73362],"type":"VEC3","name":"accessorPositions"},{"bufferView":1,"byteOffset":396648,"componentType":5126,"count":476,"type":"VEC3","name":"accessorNormals"},{"bufferView":2,"byteOffset":183752,"componentType":5126,"count":476,"type":"VEC2","name":"accessorUVs"},{"bufferView":2,"byteOffset":187560,"componentType":5126,"count":476,"type":"VEC2","name":"accessorUV2s"},{"bufferView":0,"byteOffset":110940,"componentType":5123,"count":1536,"type":"SCALAR","name":"accessorIndices"},{"bufferView":1,"byteOffset":402360,"componentType":5126,"count":512,"max":[23.5232868,17.1984787,213.151016],"min":[-23.5225468,15.5715857,-262.422974],"type":"VEC3","name":"accessorPositions"},{"bufferView":1,"byteOffset":408504,"componentType":5126,"count":512,"type":"VEC3","name":"accessorNormals"},{"bufferView":2,"byteOffset":191368,"componentType":5126,"count":512,"type":"VEC2","name":"accessorUVs"},{"bufferView":0,"byteOffset":114012,"componentType":5123,"count":1776,"type":"SCALAR","name":"accessorIndices"},{"bufferView":1,"byteOffset":414648,"componentType":5126,"count":364,"max":[22.5775757,19.1758938,212.2074],"min":[-22.5775185,15.7070293,-261.477966],"type":"VEC3","name":"accessorPositions"},{"bufferView":1,"byteOffset":419016,"componentType":5126,"count":364,"type":"VEC3","name":"accessorNormals"},{"bufferView":2,"byteOffset":195464,"componentType":5126,"count":364,"type":"VEC2","name":"accessorUVs"},{"bufferView":0,"byteOffset":117564,"componentType":5123,"count":8706,"type":"SCALAR","name":"accessorIndices"},{"bufferView":1,"byteOffset":423384,"componentType":5126,"count":2870,"max":[143.328537,19.74291,230.988266],"min":[-143.328552,0.0,-280.36264],"type":"VEC3","name":"accessorPositions"},{"bufferView":1,"byteOffset":457824,"componentType":5126,"count":2870,"type":"VEC3","name":"accessorNormals"},{"bufferView":2,"byteOffset":198376,"componentType":5126,"count":2870,"type":"VEC2","name":"accessorUVs"},{"bufferView":0,"byteOffset":134976,"componentType":5123,"count":7338,"type":"SCALAR","name":"accessorIndices"},{"bufferView":1,"byteOffset":492264,"componentType":5126,"count":3724,"max":[439.5722,21.2766266,160.601257],"min":[323.906952,0.0,-171.723],"type":"VEC3","name":"accessorPositions"},{"bufferView":1,"byteOffset":536952,"componentType":5126,"count":3724,"type":"VEC3","name":"accessorNormals"},{"bufferView":2,"byteOffset":221336,"componentType":5126,"count":3724,"type":"VEC2","name":"accessorUVs"},{"bufferView":0,"byteOffset":149652,"componentType":5123,"count":336,"type":"SCALAR","name":"accessorIndices"},{"bufferView":1,"byteOffset":581640,"componentType":5126,"count":224,"max":[427.385132,20.8196163,157.847473],"min":[327.8521,17.1949139,-168.969162],"type":"VEC3","name":"accessorPositions"},{"bufferView":1,"byteOffset":584328,"componentType":5126,"count":224,"type":"VEC3","name":"accessorNormals"},{"bufferView":2,"byteOffset":251128,"componentType":5126,"count":224,"type":"VEC2","name":"accessorUVs"},{"bufferView":0,"byteOffset":150324,"componentType":5123,"count":7338,"type":"SCALAR","name":"accessorIndices"},{"bufferView":1,"byteOffset":587016,"componentType":5126,"count":3730,"max":[57.8326454,21.2766247,160.601257],"min":[-57.8326263,0.0,-171.723],"type":"VEC3","name":"accessorPositions"},{"bufferView":1,"byteOffset":631776,"componentType":5126,"count":3730,"type":"VEC3","name":"accessorNormals"},{"bufferView":2,"byteOffset":252920,"componentType":5126,"count":3730,"type":"VEC2","name":"accessorUVs"},{"bufferView":0,"byteOffset":165000,"componentType":5123,"count":336,"type":"SCALAR","name":"accessorIndices"},{"bufferView":1,"byteOffset":676536,"componentType":5126,"count":224,"max":[53.88749,20.8196144,157.847473],"min":[-45.6455536,17.1949158,-168.969162],"type":"VEC3","name":"accessorPositions"},{"bufferView":1,"byteOffset":679224,"componentType":5126,"count":224,"type":"VEC3","name":"accessorNormals"},{"bufferView":2,"byteOffset":282760,"componentType":5126,"count":224,"type":"VEC2","name":"accessorUVs"}],"bufferViews":[{"buffer":0,"byteLength":165672,"name":"bufferViewScalar"},{"buffer":0,"byteOffset":165672,"byteLength":681912,"byteStride":12,"name":"bufferViewFloatVec3"},{"buffer":0,"byteOffset":847584,"byteLength":284552,"byteStride":8,"name":"bufferViewFloatVec2"}],"buffers":[{"uri":"7_HugeRoof.bin","byteLength":1132136}],"materials":[{"pbrMetallicRoughness":{"baseColorFactor":[0.935251832,0.935251832,0.935251832,1.0],"metallicFactor":0.0},"doubleSided":true,"name":"M_Uni_whiteWall","extras":{"babylonSeparateCullingPass":false}},{"pbrMetallicRoughness":{"baseColorFactor":[0.2422235,0.3477677,0.5611511,1.0],"metallicFactor":0.4,"roughnessFactor":0.0},"alphaMode":"BLEND","name":"M_Uni_Out_BeautifulGlass","extras":{"babylonSeparateCullingPass":false}},{"pbrMetallicRoughness":{"baseColorTexture":{"index":0,"extensions":{"KHR_texture_transform":{"offset":[-0.5,-0.5],"scale":[100.0,100.0],"texCoord":0}}},"metallicFactor":0.0,"roughnessFactor":0.0},"doubleSided":true,"name":"M_BuildingsRoof_Circle_A","extras":{"babylonSeparateCullingPass":false}},{"pbrMetallicRoughness":{"baseColorFactor":[0.0392156877,0.0392156877,0.0392156877,1.0],"metallicFactor":0.0,"roughnessFactor":0.2},"doubleSided":true,"name":"M_BlackPlastic_Std"},{"pbrMetallicRoughness":{"baseColorFactor":[0.344702661,0.406809658,0.5323741,0.9],"metallicFactor":0.35,"roughnessFactor":0.0},"alphaMode":"BLEND","name":"M_Uni_Glass_Trans"},{"pbrMetallicRoughness":{"baseColorFactor":[0.935251832,0.935251832,0.935251832,1.0],"metallicFactor":0.0},"doubleSided":true,"name":"M_Uni_whiteWall","extras":{"babylonSeparateCullingPass":false}}],"textures":[{"sampler":0,"source":0,"name":"T_BuildingsRoof_Circle.jpg"}],"images":[{"uri":"T_BuildingsRoof_Circle.jpg"}],"samplers":[{"magFilter":9729,"minFilter":9987}]}