{"buffers":[{"uri":"7_HugeRoof_Pack.bin","byteLength":158512},{"byteLength":470372,"extensions":{"EXT_meshopt_compression":{"fallback":true}}}],"asset":{"version":"2.0","generator":"gltfpack 0.18"},"extensionsUsed":["KHR_mesh_quantization","EXT_meshopt_compression","KHR_texture_transform"],"extensionsRequired":["KHR_mesh_quantization","EXT_meshopt_compression"],"bufferViews":[{"buffer":1,"byteOffset":0,"byteLength":201864,"byteStride":8,"target":34962,"extensions":{"EXT_meshopt_compression":{"buffer":0,"byteOffset":0,"byteLength":89294,"byteStride":8,"mode":"ATTRIBUTES","count":25233}}},{"buffer":1,"byteOffset":201864,"byteLength":100932,"byteStride":4,"target":34962,"extensions":{"EXT_meshopt_compression":{"buffer":0,"byteOffset":89296,"byteLength":36902,"byteStride":4,"mode":"ATTRIBUTES","count":25233}}},{"buffer":1,"byteOffset":302796,"byteLength":165672,"target":34963,"extensions":{"EXT_meshopt_compression":{"buffer":0,"byteOffset":126200,"byteLength":30618,"byteStride":2,"mode":"TRIANGLES","count":82836}}},{"buffer":1,"byteOffset":468468,"byteLength":1904,"byteStride":4,"target":34962,"extensions":{"EXT_meshopt_compression":{"buffer":0,"byteOffset":156820,"byteLength":1691,"byteStride":4,"mode":"ATTRIBUTES","count":476}}}],"accessors":[{"bufferView":0,"byteOffset":0,"componentType":5123,"count":23331,"type":"VEC3","min":[0,0,0],"max":[15936,16383,1370]},{"bufferView":1,"byteOffset":0,"componentType":5120,"count":23331,"type":"VEC3","normalized":true},{"bufferView":2,"byteOffset":0,"componentType":5123,"count":77280,"type":"SCALAR"},{"bufferView":0,"byteOffset":186648,"componentType":5123,"count":550,"type":"VEC3","min":[390,1837,579],"max":[15546,14319,1331]},{"bufferView":1,"byteOffset":93324,"componentType":5120,"count":550,"type":"VEC3","normalized":true},{"bufferView":2,"byteOffset":154560,"componentType":5123,"count":984,"type":"SCALAR"},{"bufferView":0,"byteOffset":191048,"componentType":5123,"count":476,"type":"VEC3","min":[3618,1986,760],"max":[12270,14809,1083]},{"bufferView":1,"byteOffset":95524,"componentType":5120,"count":476,"type":"VEC3","normalized":true},{"bufferView":3,"byteOffset":0,"componentType":5123,"count":476,"type":"VEC2","normalized":true},{"bufferView":2,"byteOffset":156528,"componentType":5123,"count":1260,"type":"SCALAR"},{"bufferView":0,"byteOffset":194856,"componentType":5123,"count":512,"type":"VEC3","min":[7190,571,1236],"max":[8698,15808,1288]},{"bufferView":1,"byteOffset":97428,"componentType":5120,"count":512,"type":"VEC3","normalized":true},{"bufferView":2,"byteOffset":159048,"componentType":5123,"count":1536,"type":"SCALAR"},{"bufferView":0,"byteOffset":198952,"componentType":5123,"count":364,"type":"VEC3","min":[7221,602,1241],"max":[8667,15778,1352]},{"bufferView":1,"byteOffset":99476,"componentType":5120,"count":364,"type":"VEC3","normalized":true},{"bufferView":2,"byteOffset":162120,"componentType":5123,"count":1776,"type":"SCALAR"}],"samplers":[{"magFilter":9729,"minFilter":9987}],"images":[{"uri":"T_BuildingsRoof_Circle.jpg"}],"textures":[{"sampler":0,"source":0}],"materials":[{"name":"M_Uni_whiteWall","pbrMetallicRoughness":{"baseColorFactor":[0.935251832,0.935251832,0.935251832,1],"metallicFactor":0},"doubleSided":true},{"name":"M_Uni_Out_BeautifulGlass","pbrMetallicRoughness":{"baseColorFactor":[0.242223501,0.347767711,0.561151087,1],"metallicFactor":0.400000006,"roughnessFactor":0}},{"name":"M_BuildingsRoof_Circle_A","pbrMetallicRoughness":{"baseColorTexture":{"index":0,"extensions":{"KHR_texture_transform":{"offset":[-0.495763838,-0.496648788],"scale":[1573.89587,1592.41895]}}},"metallicFactor":0,"roughnessFactor":0},"doubleSided":true},{"name":"M_BlackPlastic_Std","pbrMetallicRoughness":{"baseColorFactor":[0.0392156877,0.0392156877,0.0392156877,1],"metallicFactor":0,"roughnessFactor":0.200000003},"doubleSided":true},{"name":"M_Uni_Glass_Trans","pbrMetallicRoughness":{"baseColorFactor":[0.344702661,0.406809658,0.532374084,0.899999976],"metallicFactor":0.349999994,"roughnessFactor":0},"alphaMode":"BLEND"}],"meshes":[{"primitives":[{"attributes":{"POSITION":0,"NORMAL":1},"indices":2,"material":0},{"attributes":{"POSITION":3,"NORMAL":4},"indices":5,"material":1},{"attributes":{"POSITION":6,"NORMAL":7,"TEXCOORD_0":8},"indices":9,"material":2},{"attributes":{"POSITION":10,"NORMAL":11},"indices":12,"material":3},{"attributes":{"POSITION":13,"NORMAL":14},"indices":15,"material":4}]}],"nodes":[{"mesh":0,"translation":[-200.981552,-126.32724,3.99099922],"scale":[0.0312122852,0.0312122852,0.0312122852]}],"scenes":[{"nodes":[0]}],"scene":0}