{"asset":{"version":"2.0","generator":"babylon.js glTF exporter for 3dsmax 2020 v20220628.14"},"scene":0,"scenes":[{"nodes":[0]}],"nodes":[{"mesh":0,"translation":[340.710876,74.500885,-3.09179688],"rotation":[0.7071068,0.0,0.0,0.7071067],"name":"SM_refer_Compass"}],"meshes":[{"primitives":[{"attributes":{"POSITION":1,"NORMAL":2},"indices":0,"material":0}],"name":"SM_refer_Compass"}],"accessors":[{"bufferView":0,"componentType":5123,"count":1485,"type":"SCALAR","name":"accessorIndices"},{"bufferView":1,"componentType":5126,"count":707,"max":[156.123962,16.7090378,101.065285],"min":[-156.123947,0.0,-101.065277],"type":"VEC3","name":"accessorPositions"},{"bufferView":1,"byteOffset":8484,"componentType":5126,"count":707,"type":"VEC3","name":"accessorNormals"}],"bufferViews":[{"buffer":0,"byteLength":2972,"name":"bufferViewScalar"},{"buffer":0,"byteOffset":2972,"byteLength":16968,"byteStride":12,"name":"bufferViewFloatVec3"}],"buffers":[{"uri":"A_Indicator.bin","byteLength":19940}],"materials":[{"pbrMetallicRoughness":{"baseColorFactor":[0.0,0.5882353,0.20784314,1.0],"metallicFactor":0.0,"roughnessFactor":0.450053632},"name":"M_Col_B3"}]}