<svg width="185" height="106" viewBox="0 0 185 106" fill="none" xmlns="http://www.w3.org/2000/svg">
    <path opacity="0.5" d="M113.199 98C113.199 102.418 103.797 106 92.1992 106C80.6012 106 71.1992 102.418 71.1992 98C71.1992 93.5817 80.6012 90 92.1992 90C103.797 90 113.199 93.5817 113.199 98ZM75.3992 98C75.3992 101.535 82.9208 104.4 92.1992 104.4C101.478 104.4 108.999 101.535 108.999 98C108.999 94.4654 101.478 91.6 92.1992 91.6C82.9208 91.6 75.3992 94.4654 75.3992 98Z" fill="#E3EDFF"/>
    <ellipse opacity="0.9" cx="92.2006" cy="97.999" rx="10.2162" ry="3.73333" fill="#16ECFF"/>
    <path d="M5.75012 18.1682C5.04484 14.7577 7.64672 11.5587 11.1294 11.5544L177.541 11.3486C180.968 11.3443 183.564 14.442 182.962 17.816L173.515 70.6832C173.045 73.3126 170.754 75.2242 168.083 75.2157L21.9128 74.7506C19.3111 74.7423 17.0711 72.9122 16.5442 70.3644L5.75012 18.1682Z" fill="url(#paint0_linear_3381_4696)" fill-opacity="0.4" stroke="url(#paint1_linear_3381_4696)"/>
    <path d="M13.8702 22.4554C13.3767 20.2645 15.045 18.1825 17.2907 18.1864L170.684 18.4533C172.857 18.4571 174.501 20.4199 174.125 22.5602L166.393 66.467C166.097 68.1487 164.631 69.3712 162.923 69.36L27.0085 68.4633C25.3805 68.4525 23.9748 67.3207 23.6171 65.7324L13.8702 22.4554Z" fill="url(#paint2_linear_3381_4696)" fill-opacity="0.6" stroke="url(#paint3_linear_3381_4696)"/>
    <g filter="url(#filter0_d_3381_4696)">
        <path d="M42.4965 29.3976L45.5565 29.5176L45.5556 56.2176H42.4956L42.4958 51.1476C41.8957 51.4276 41.2557 51.7276 40.5757 52.0476C39.8957 52.3476 39.2357 52.6476 38.5957 52.9476C37.9557 53.2276 37.3657 53.4876 36.8257 53.7276C36.2857 53.9876 35.8557 54.1876 35.5356 54.3276L34.3658 51.2076C34.7458 51.0476 35.2758 50.8276 35.9558 50.5476C36.6358 50.2476 37.3558 49.9276 38.1158 49.5876C38.8958 49.2476 39.6758 48.9076 40.4558 48.5676C41.2359 48.2076 41.9159 47.8876 42.4959 47.6076L42.4961 39.7776H35.5661L35.5662 36.6276H42.4962L42.4965 29.3976ZM61.0359 48.1476C61.0358 48.5876 61.0058 49.1676 60.9458 49.8876C60.9058 50.5876 60.8458 51.2276 60.7657 51.8076C60.6657 52.5276 60.5257 53.1276 60.3457 53.6076C60.1857 54.1076 59.9456 54.4976 59.6256 54.7776C59.3056 55.0576 58.8856 55.2576 58.3656 55.3776C57.8656 55.4976 57.2156 55.5576 56.4156 55.5576H53.5356C52.7356 55.5576 52.0656 55.4876 51.5256 55.3476C51.0056 55.2276 50.5856 55.0076 50.2656 54.6876C49.9456 54.3876 49.7157 53.9676 49.5757 53.4276C49.4557 52.8876 49.3957 52.1976 49.3957 51.3576L49.3965 29.4876L52.4565 29.6076L52.4562 38.5476C53.5562 37.8476 54.6762 37.0976 55.8163 36.2976C56.9563 35.4976 57.9863 34.7276 58.9063 33.9876L60.7062 36.7476C60.1862 37.1076 59.5762 37.5276 58.8762 38.0076C58.1962 38.4676 57.4762 38.9476 56.7161 39.4476C55.9561 39.9476 55.2061 40.4476 54.4661 40.9476C53.7261 41.4276 53.0561 41.8576 52.4561 42.2376L52.4558 51.0576C52.4557 51.3776 52.4757 51.6376 52.5157 51.8376C52.5557 52.0176 52.6357 52.1676 52.7557 52.2876C52.8757 52.3876 53.0357 52.4576 53.2357 52.4976C53.4357 52.5376 53.6957 52.5576 54.0157 52.5576H55.6057C56.0257 52.5576 56.3557 52.5376 56.5957 52.4976C56.8357 52.4576 57.0257 52.3776 57.1657 52.2576C57.3057 52.1376 57.4057 51.9776 57.4657 51.7776C57.5457 51.5776 57.6157 51.3176 57.6758 50.9976C57.7158 50.7976 57.7458 50.5176 57.7658 50.1576C57.8058 49.7976 57.8258 49.4176 57.8258 49.0176C57.8458 48.6176 57.8559 48.2376 57.8559 47.8776C57.8759 47.5176 57.8859 47.2476 57.8859 47.0676L61.0359 48.1476ZM88.0776 33.2076L88.0768 56.3376H85.2868L85.2869 54.9276H69.5669L69.5668 56.3976H66.7168L66.7176 33.2076H74.0676C74.2076 32.8276 74.3576 32.4276 74.5176 32.0076C74.6777 31.5876 74.8277 31.1776 74.9677 30.7776C75.1277 30.3776 75.2677 30.0176 75.3877 29.6976C75.5077 29.3576 75.5977 29.0776 75.6578 28.8576L78.7477 29.6376C78.5277 30.2176 78.2977 30.8276 78.0577 31.4676C77.8176 32.0876 77.5876 32.6676 77.3676 33.2076H88.0776ZM69.5675 36.1476L69.5673 42.5376H85.2873L85.2875 36.1476H69.5675ZM85.287 52.0176L85.2872 45.3576H69.5672L69.567 52.0176H85.287ZM113.408 46.4376C113.768 47.1376 114.168 47.7776 114.608 48.3576C115.048 48.9376 115.548 49.4876 116.108 50.0076C116.668 50.5076 117.298 51.0076 117.998 51.5076C118.718 51.9876 119.528 52.4876 120.428 53.0076L118.628 55.3176C117.748 54.7576 116.938 54.1976 116.198 53.6376C115.478 53.0776 114.808 52.4876 114.188 51.8676C113.568 51.2476 112.998 50.5876 112.478 49.8876C111.978 49.1676 111.518 48.3776 111.098 47.5176C110.918 47.5976 110.738 47.6776 110.558 47.7576C110.378 47.8376 110.208 47.9176 110.048 47.9976C110.208 48.5776 110.318 49.1776 110.378 49.7976C110.438 50.4176 110.468 51.0676 110.468 51.7476C110.468 52.5276 110.378 53.1876 110.198 53.7276C110.038 54.2676 109.758 54.7176 109.358 55.0776C108.978 55.4576 108.468 55.7476 107.828 55.9476C107.188 56.1676 106.408 56.3276 105.488 56.4276L103.748 56.6076L102.878 53.8776L104.768 53.7276C105.848 53.6276 106.608 53.3776 107.048 52.9776C107.488 52.5776 107.698 51.8876 107.678 50.9076C107.678 50.8076 107.678 50.7076 107.678 50.6076C107.678 50.5076 107.668 50.4076 107.648 50.3076C106.868 50.8876 105.988 51.4376 105.008 51.9576C104.048 52.4776 103.008 52.9776 101.888 53.4576C100.788 53.9376 99.6281 54.3976 98.4081 54.8376C97.1881 55.2776 95.9481 55.7076 94.6881 56.1276L93.6682 53.7876C96.3482 53.0876 98.8482 52.2176 101.168 51.1776C103.488 50.1176 105.488 49.0076 107.168 47.8476C107.048 47.4876 106.898 47.1276 106.718 46.7676C105.338 47.7276 103.758 48.5976 101.978 49.3776C100.198 50.1576 98.0983 50.9376 95.6782 51.7176L94.6883 49.5576C96.9283 48.8776 98.9584 48.1376 100.778 47.3376C102.598 46.5376 104.168 45.7176 105.488 44.8776C105.368 44.7176 105.238 44.5576 105.098 44.3976C104.958 44.2376 104.818 44.0776 104.678 43.9176C103.598 44.6776 102.278 45.3576 100.718 45.9576C99.1584 46.5576 97.2984 47.1576 95.1384 47.7576L94.2084 45.4176C95.3485 45.1376 96.3485 44.8676 97.2085 44.6076C98.0885 44.3476 98.8685 44.0876 99.5485 43.8276C100.229 43.5476 100.819 43.2776 101.319 43.0176C101.819 42.7576 102.269 42.4876 102.669 42.2076H96.6686L96.6687 37.9176C96.4887 38.0176 96.2987 38.1276 96.0987 38.2476C95.9187 38.3676 95.7287 38.4776 95.5287 38.5776L94.3588 35.9976C96.1788 34.9976 97.7588 33.9176 99.0989 32.7576C100.459 31.5776 101.659 30.2676 102.699 28.8276L105.369 29.9976L104.469 31.1676H114.429L114.429 33.3576L111.909 35.4276H117.669L117.669 42.2076H116.169L117.368 44.3976C116.748 44.7376 116.098 45.0776 115.418 45.4176C114.758 45.7576 114.088 46.0976 113.408 46.4376ZM102.459 33.4176C102.119 33.7576 101.759 34.0976 101.379 34.4376C101.019 34.7576 100.639 35.0876 100.239 35.4276H108.039L110.499 33.4176H102.459ZM99.5486 40.0776H104.739C104.959 39.7376 105.169 39.3576 105.369 38.9376C105.569 38.4976 105.749 38.0576 105.909 37.6176H99.5487L99.5486 40.0776ZM108.729 37.6176C108.449 38.4576 108.119 39.2776 107.739 40.0776H114.849L114.849 37.6176H108.729ZM106.569 42.2076C107.649 43.2876 108.498 44.4276 109.118 45.6276C110.038 45.1876 111.068 44.6676 112.208 44.0676C113.349 43.4676 114.459 42.8476 115.539 42.2076H106.569ZM131.989 53.0376C131.809 53.1576 131.549 53.3276 131.209 53.5476C130.869 53.7876 130.479 54.0476 130.039 54.3276C129.619 54.6276 129.159 54.9476 128.659 55.2876C128.159 55.6476 127.649 56.0076 127.129 56.3676L125.839 54.0576C126.119 53.7776 126.279 53.5076 126.319 53.2476C126.379 52.9876 126.409 52.7876 126.409 52.6476L126.41 46.6476H123.74L123.74 44.1876H126.41L126.41 40.7076H124.73L124.73 39.0276L124.16 39.7776L122.39 37.8876C122.83 37.2876 123.26 36.6376 123.68 35.9376C124.12 35.2176 124.54 34.4876 124.94 33.7476C125.34 32.9876 125.7 32.2276 126.02 31.4676C126.36 30.7076 126.64 29.9776 126.86 29.2776L129.41 29.9376C129.13 30.8376 128.77 31.7776 128.33 32.7576H132.41L132.41 35.2176H127.1C126.82 35.7376 126.53 36.2576 126.23 36.7776C125.93 37.2776 125.62 37.7576 125.3 38.2176H132.02L132.02 40.7076H129.05L129.05 44.1876H132.38L132.38 46.6476H129.05L129.049 51.9876L131.36 50.4876L131.989 53.0376ZM137.81 51.1776L138.919 53.0676C137.979 53.7076 136.889 54.3876 135.649 55.1076C134.429 55.8276 133.159 56.4476 131.839 56.9676L130.519 54.5376C131.799 54.0776 133.029 53.5576 134.209 52.9776C135.409 52.3976 136.449 51.7976 137.33 51.1776H131.54L131.54 49.0776H133.4L133.4 35.6076H138.83L138.83 33.9276H132.8L132.8 31.7376H138.83L138.83 29.3676L141.59 29.4876L141.59 31.7376H148.79L148.79 33.9276H141.59L141.59 35.6076H147.05L147.05 49.0776H149.48L149.48 51.1776H137.81ZM135.98 37.6776L135.98 39.0876H144.44L144.44 37.6776H135.98ZM144.44 41.0076H135.98L135.98 42.4176H144.44L144.44 41.0076ZM135.98 44.3376L135.98 45.7776H144.44L144.44 44.3376H135.98ZM135.98 49.0776H144.44L144.44 47.6676H135.98L135.98 49.0776ZM142.97 51.2076C143.449 51.3876 143.979 51.6076 144.559 51.8676C145.159 52.1276 145.759 52.3976 146.359 52.6776C146.979 52.9576 147.579 53.2376 148.159 53.5176C148.739 53.7976 149.269 54.0676 149.749 54.3276L148.759 56.8176C148.299 56.5576 147.769 56.2676 147.169 55.9476C146.569 55.6276 145.959 55.3076 145.339 54.9876C144.719 54.6676 144.109 54.3576 143.509 54.0576C142.909 53.7576 142.369 53.4976 141.889 53.2776L142.97 51.2076Z" fill="white"/>
    </g>
    <defs>
        <filter id="filter0_d_3381_4696" x="30.3672" y="25.8281" width="123.383" height="36.1387" filterUnits="userSpaceOnUse" color-interpolation-filters="sRGB">
            <feFlood flood-opacity="0" result="BackgroundImageFix"/>
            <feColorMatrix in="SourceAlpha" type="matrix" values="0 0 0 0 0 0 0 0 0 0 0 0 0 0 0 0 0 0 127 0" result="hardAlpha"/>
            <feOffset dy="1"/>
            <feGaussianBlur stdDeviation="2"/>
            <feColorMatrix type="matrix" values="0 0 0 0 0 0 0 0 0 0 0 0 0 0 0 0 0 0 0.25 0"/>
            <feBlend mode="normal" in2="BackgroundImageFix" result="effect1_dropShadow_3381_4696"/>
            <feBlend mode="normal" in="SourceGraphic" in2="effect1_dropShadow_3381_4696" result="shape"/>
        </filter>
        <linearGradient id="paint0_linear_3381_4696" x1="94.5709" y1="5.45989" x2="95.6988" y2="78.8278" gradientUnits="userSpaceOnUse">
            <stop stop-color="#1AA2E7" stop-opacity="0"/>
            <stop offset="1" stop-color="#1AA2E7"/>
        </linearGradient>
        <linearGradient id="paint1_linear_3381_4696" x1="94.1121" y1="13.1483" x2="93.7007" y2="75.4014" gradientUnits="userSpaceOnUse">
            <stop stop-color="white" stop-opacity="0"/>
            <stop offset="1" stop-color="#1AA2E7"/>
        </linearGradient>
        <linearGradient id="paint2_linear_3381_4696" x1="18.935" y1="44.7499" x2="170.459" y2="46.1378" gradientUnits="userSpaceOnUse">
            <stop stop-color="#1AA2E7" stop-opacity="0.34"/>
            <stop offset="0.484375" stop-color="#1AA2E7"/>
            <stop offset="1" stop-color="#1AA2E7" stop-opacity="0.34"/>
        </linearGradient>
        <linearGradient id="paint3_linear_3381_4696" x1="93.8785" y1="17.5405" x2="92.4137" y2="70.2555" gradientUnits="userSpaceOnUse">
            <stop stop-color="white" stop-opacity="0"/>
            <stop offset="0.494279" stop-color="white"/>
            <stop offset="1" stop-color="white" stop-opacity="0"/>
        </linearGradient>
    </defs>
</svg>
